<?xml version="1.0" encoding="UTF-8" standalone="no"?>
<!-- Created with Inkscape (http://www.inkscape.org/) -->

<svg
   width="851.13367"
   height="730.01703"
   viewBox="0 0 225.19578 193.15034"
   version="1.1"
   id="svg1"
   xmlns:xlink="http://www.w3.org/1999/xlink"
   xmlns="http://www.w3.org/2000/svg"
   xmlns:svg="http://www.w3.org/2000/svg">
  <defs
     id="defs1">
    <linearGradient
       id="linearGradient15">
      <stop
         style="stop-color:#000000;stop-opacity:1;"
         offset="0"
         id="stop15" />
      <stop
         style="stop-color:#3b3b3b;stop-opacity:1;"
         offset="1"
         id="stop16" />
    </linearGradient>
    <linearGradient
       id="linearGradient6">
      <stop
         style="stop-color:#ff0000;stop-opacity:0.1;"
         offset="0"
         id="stop6" />
      <stop
         style="stop-color:#fff600;stop-opacity:0.10196079;"
         offset="0.25214195"
         id="stop8" />
      <stop
         style="stop-color:#43ff00;stop-opacity:0.10196079;"
         offset="0.48186529"
         id="stop10" />
      <stop
         style="stop-color:#00ffff;stop-opacity:0.10196079;"
         offset="0.74093264"
         id="stop11" />
      <stop
         style="stop-color:#0001fe;stop-opacity:0.10196079;"
         offset="0.9300673"
         id="stop12" />
      <stop
         style="stop-color:#9f00ff;stop-opacity:0.1;"
         offset="1"
         id="stop7" />
    </linearGradient>
    <filter
       style="color-interpolation-filters:sRGB"
       id="filter14-1"
       x="-0.22270308"
       y="-0.31805375"
       width="1.4454062"
       height="1.6361075">
      <feGaussianBlur
         stdDeviation="5.5725701"
         id="feGaussianBlur14-4" />
    </filter>
    <filter
       style="color-interpolation-filters:sRGB"
       id="filter14-4-0"
       x="-0.23718088"
       y="-0.33634272"
       width="1.4743618"
       height="1.6726854">
      <feGaussianBlur
         stdDeviation="6.0001656"
         id="feGaussianBlur14-3-7" />
    </filter>
    <linearGradient
       xlink:href="#linearGradient6"
       id="linearGradient71"
       gradientUnits="userSpaceOnUse"
       gradientTransform="matrix(0.54555531,0,0,0.54555531,-5.196862,116.24669)"
       x1="-248.26454"
       y1="-15.265503"
       x2="-202.58525"
       y2="-14.954308" />
    <linearGradient
       xlink:href="#linearGradient6"
       id="linearGradient72"
       gradientUnits="userSpaceOnUse"
       gradientTransform="matrix(0.54555531,0,0,0.54555531,377.17807,222.73146)"
       x1="-248.26454"
       y1="-15.265503"
       x2="-202.58525"
       y2="-14.954308" />
    <linearGradient
       xlink:href="#linearGradient15"
       id="linearGradient73"
       gradientUnits="userSpaceOnUse"
       gradientTransform="matrix(1.566821,2.0070593e-8,-2.0070593e-8,1.566821,150.13593,147.72334)"
       x1="-106.43737"
       y1="-27.844938"
       x2="-82.617798"
       y2="-27.844938" />
    <linearGradient
       xlink:href="#linearGradient6"
       id="linearGradient78"
       gradientUnits="userSpaceOnUse"
       gradientTransform="matrix(0.54555531,0,0,0.54555531,-5.196862,116.24669)"
       x1="-248.26454"
       y1="-15.265503"
       x2="-202.58525"
       y2="-14.954308" />
    <linearGradient
       xlink:href="#linearGradient6"
       id="linearGradient79"
       gradientUnits="userSpaceOnUse"
       gradientTransform="matrix(0.54555531,0,0,0.54555531,377.17807,222.73146)"
       x1="-248.26454"
       y1="-15.265503"
       x2="-202.58525"
       y2="-14.954308" />
    <filter
       style="color-interpolation-filters:sRGB"
       id="filter101"
       x="-0.1048696"
       y="-0.22174817"
       width="1.2097392"
       height="1.4524647">
      <feFlood
         result="flood"
         in="SourceGraphic"
         flood-opacity="1.000000"
         flood-color="rgb(0,0,0)"
         id="feFlood100" />
      <feGaussianBlur
         result="blur"
         in="SourceGraphic"
         stdDeviation="5.000000"
         id="feGaussianBlur100" />
      <feOffset
         result="offset"
         in="blur"
         dx="0.000000"
         dy="0.000000"
         id="feOffset100" />
      <feComposite
         result="comp1"
         operator="in"
         in="flood"
         in2="offset"
         id="feComposite100" />
      <feComposite
         result="comp2"
         operator="over"
         in="SourceGraphic"
         in2="comp1"
         id="feComposite101" />
    </filter>
    <filter
       style="color-interpolation-filters:sRGB"
       id="filter105"
       x="-0.1048696"
       y="-0.22174817"
       width="1.2097392"
       height="1.4524647">
      <feFlood
         result="flood"
         in="SourceGraphic"
         flood-opacity="1.000000"
         flood-color="rgb(0,0,0)"
         id="feFlood103" />
      <feGaussianBlur
         result="blur"
         in="SourceGraphic"
         stdDeviation="5.000000"
         id="feGaussianBlur103" />
      <feOffset
         result="offset"
         in="blur"
         dx="0.000000"
         dy="0.000000"
         id="feOffset103" />
      <feComposite
         result="comp1"
         operator="in"
         in="flood"
         in2="offset"
         id="feComposite104" />
      <feComposite
         result="comp2"
         operator="over"
         in="SourceGraphic"
         in2="comp1"
         id="feComposite105" />
    </filter>
  </defs>
  <g
     id="layer1"
     transform="translate(-495.16606,170.01578)">
    <g
       id="g71"
       transform="matrix(1.1491302,0.53670964,-0.53670964,1.1491302,431.63375,-203.92638)"
       style="filter:url(#filter101)">
      <circle
         style="fill:#cccccc;fill-opacity:1;stroke:none;stroke-width:10;stroke-linecap:square;stroke-miterlimit:1.6"
         id="circle67"
         cx="253.89922"
         cy="179.06389"
         r="57.213913" />
      <circle
         style="fill:#ececec;fill-opacity:1;stroke:none;stroke-width:11.3393;stroke-linecap:square;stroke-miterlimit:1.6"
         id="circle68"
         cx="253.89922"
         cy="179.06389"
         r="15.246161" />
      <circle
         style="fill:#1a1a1a;fill-opacity:1;stroke:none;stroke-width:4.34003;stroke-linecap:square;stroke-miterlimit:1.6"
         id="circle69"
         cx="253.89922"
         cy="179.06389"
         r="6.1479645" />
      <path
         id="path69"
         style="mix-blend-mode:normal;fill:url(#linearGradient71);stroke-width:5.45555;stroke-linecap:square;stroke-miterlimit:1.6;filter:url(#filter14-1)"
         d="m -128.47571,86.978373 29.943831,33.285987 c -9.180341,5.74442 -19.323991,8.66577 -30.430941,8.76404 -13.23429,-0.67667 -22.80029,-3.62265 -29.62287,-8.2658 z"
         transform="rotate(180,62.4682,125.43919)" />
      <path
         id="path70"
         style="mix-blend-mode:normal;fill:url(#linearGradient72);stroke-width:5.45555;stroke-linecap:square;stroke-miterlimit:1.6;filter:url(#filter14-4-0)"
         d="m 253.89922,193.46315 30.25585,34.16014 c -8.54996,5.50129 -18.63524,8.38613 -30.25585,8.65451 -10.76096,0.004 -20.91395,-2.92282 -30.45898,-8.78166 z" />
      <path
         style="font-size:11.0548px;line-height:1.1;font-family:'Ink Free';-inkscape-font-specification:'Ink Free';text-align:center;text-anchor:middle;fill:url(#linearGradient73);stroke-width:15.6682;stroke-linecap:square;stroke-miterlimit:1.6"
         d="m -21.108091,101.99141 c -0.174933,0.19061 -0.354712,0.37676 -0.539484,0.55861 -0.186018,0.18308 -0.30448,0.29823 -0.365283,0.35156 0.414464,0.79883 0.756086,1.48972 1.023337,2.064 0.08718,0.18733 0.178741,0.33212 0.274117,0.43434 0.09884,0.0925 0.155918,0.15575 0.171381,0.18919 0.03409,0.0737 0.0259,0.15059 -0.02414,0.2307 -0.04695,0.0868 -0.10934,0.14839 -0.187452,0.18496 -0.09758,0.0457 -0.192476,0.005 -0.284997,-0.1229 -0.0063,-0.0133 -0.04459,-0.0688 -0.11484,-0.16613 -0.06371,-0.10041 -0.141647,-0.24739 -0.233503,-0.44062 -0.244751,-0.51487 -0.674722,-1.36883 -1.278814,-2.52995 -0.307212,-0.59105 -0.519977,-1.00943 -0.641453,-1.2639 -0.101752,-0.21316 -0.191975,-0.41123 -0.270675,-0.59451 -0.08193,-0.19004 -0.138565,-0.31803 -0.170402,-0.38479 -0.397158,0.32882 -0.727528,0.63645 -0.991964,0.91778 -0.08236,0.099 -0.192481,0.24997 -0.32743,0.45141 -0.06043,0.0889 -0.12224,0.17466 -0.185481,0.25717 -0.05629,0.0789 -0.105073,0.12921 -0.146735,0.15093 -0.05552,0.029 -0.11598,0.0315 -0.181529,0.008 -0.06555,-0.0239 -0.115489,-0.0684 -0.149713,-0.13362 -0.0445,-0.0848 0.03245,-0.25914 0.234915,-0.52167 0.198915,-0.26886 0.46063,-0.56017 0.78648,-0.87025 0.333094,-0.31376 0.653483,-0.57937 0.957703,-0.797059 0.358898,-0.251773 0.780675,-0.487862 1.264176,-0.703934 0.666557,-0.297877 1.232047,-0.44014 1.683559,-0.435813 0.449813,-0.0025 0.737972,0.161316 0.867674,0.482925 0.163042,0.404274 0.127926,0.823731 -0.09476,1.259331 -0.225989,0.4297 -0.586535,0.90106 -1.074712,1.42458 1e-5,3e-5 2.1e-5,5e-5 3.1e-5,8e-5 z m -1.201259,-2.326444 c -0.334783,0.149574 -0.666396,0.325444 -0.993629,0.527444 0.01773,0.0568 0.06478,0.18576 0.1411,0.38629 0.0835,0.19723 0.165992,0.3828 0.2473,0.55661 0.117708,0.24237 0.235371,0.48477 0.352991,0.72718 0.08209,0.15729 0.180804,0.35944 0.296481,0.60695 0.141079,-0.0824 0.399137,-0.32459 0.793497,-0.72837 0.37622,-0.40312 0.676663,-0.78978 0.898686,-1.1646 0.219002,-0.38137 0.276225,-0.70763 0.163252,-0.980928 -0.09583,-0.231817 -0.320967,-0.33147 -0.67667,-0.293362 -0.355165,0.03805 -0.764609,0.157949 -1.223011,0.362754 1e-6,1.1e-5 2e-6,2.1e-5 3e-6,3.2e-5 z m 10.781124,2.143994 c -0.06974,0.0186 -0.138804,0.0257 -0.207315,0.0213 -0.07069,-0.0115 -0.177747,-0.0356 -0.323296,-0.072 -0.511415,-0.14099 -1.165925,-0.23088 -1.959393,-0.25345 -0.348916,-0.007 -0.761574,0.005 -1.234854,0.039 -0.467059,0.0248 -0.839562,0.0567 -1.103347,0.0884 0.184095,0.43994 0.367583,0.88009 0.550464,1.32048 0.07335,0.18543 0.152726,0.33362 0.237661,0.44449 0.08737,0.11779 0.137068,0.19443 0.14926,0.22916 0.0269,0.0766 0.01168,0.1524 -0.04526,0.22741 -0.05449,0.082 -0.121911,0.13738 -0.202588,0.16639 -0.100776,0.0362 -0.190952,-0.0134 -0.270801,-0.14939 -0.005,-0.0138 -0.03782,-0.0727 -0.09842,-0.17633 -0.05384,-0.10604 -0.117499,-0.25982 -0.190666,-0.46097 -0.04763,-0.13096 -0.16409,-0.40879 -0.348262,-0.82789 -0.06005,-0.14314 -0.117628,-0.27933 -0.172722,-0.40856 -0.05763,-0.1362 -0.105459,-0.25622 -0.143471,-0.36028 -0.0287,-0.0131 -0.06574,-0.0271 -0.1111,-0.0419 -0.03833,-0.0174 -0.077,-0.0464 -0.116022,-0.0871 -0.04413,-0.0546 -0.08608,-0.11384 -0.12583,-0.17786 -0.03976,-0.064 -0.06606,-0.11332 -0.07888,-0.14796 -0.01794,-0.0485 -0.01785,-0.0918 3.64e-4,-0.13004 0.01821,-0.0382 0.04942,-0.0851 0.09371,-0.14072 -0.685231,-1.735546 -1.059335,-2.681641 -1.157815,-2.949333 -0.0816,-0.221799 -0.153017,-0.42753 -0.214237,-0.617476 -0.06126,-0.190053 -0.103171,-0.315909 -0.126145,-0.378433 -0.04764,0.02617 -0.16997,0.08903 -0.392269,0.204504 -0.21756,0.113008 -0.389496,0.210538 -0.514811,0.290407 -0.443577,0.28943 -0.768928,0.536746 -0.975654,0.732076 -0.217796,0.192311 -0.416942,0.394897 -0.597317,0.607173 -0.04932,0.06886 -0.09762,0.129416 -0.144999,0.181694 -0.05763,0.04861 -0.115795,0.08553 -0.174621,0.110776 -0.05882,0.02524 -0.120446,0.02366 -0.185058,-0.0047 -0.06752,-0.03514 -0.11751,-0.08993 -0.149808,-0.164493 -0.05577,-0.12875 0.114655,-0.381471 0.521346,-0.752215 0.406616,-0.370674 0.874142,-0.724149 1.402124,-1.055874 0.294863,-0.185597 0.685521,-0.39415 1.169848,-0.617716 0.482472,-0.230808 0.943079,-0.418931 1.378471,-0.565887 0.746338,-0.251906 1.410328,-0.378488 1.979752,-0.388551 0.57774,-0.01243 1.038184,0.08338 1.379148,0.279015 0.348953,0.193557 0.568275,0.466677 0.663416,0.814972 0.122351,0.447903 0.08903,0.869312 -0.09162,1.264236 -0.18085,0.395367 -0.458423,0.773884 -0.82983,1.14029 -0.36683,0.366961 -0.867363,0.808686 -1.504626,1.352498 -0.158635,0.14702 -0.318459,0.28772 -0.479713,0.42218 -0.153131,0.13112 -0.258493,0.22454 -0.311572,0.27427 0.01485,0.0417 0.02955,0.0718 0.04407,0.0901 0.825329,-0.10584 1.646524,-0.165 2.459952,-0.17778 0.08111,-0.002 0.162172,-0.004 0.243184,-0.005 0.837877,-0.004 1.473832,0.0243 1.871352,0.0593 0.402681,0.0285 0.613599,0.089 0.635684,0.17457 0.0221,0.0857 0.01348,0.19815 -0.02504,0.33775 -0.03851,0.13957 -0.09575,0.21947 -0.172471,0.23992 7e-6,3e-5 1.4e-5,6e-5 2.1e-5,9e-5 z m -5.801479,-5.395096 c -0.47505,0.161249 -0.77771,0.277876 -0.892359,0.334047 0.0097,0.0513 0.03929,0.170291 0.08878,0.356366 0.05713,0.183432 0.118136,0.365483 0.182918,0.546187 0.214421,0.550596 0.428412,1.101347 0.641973,1.652251 0.168811,0.425775 0.337289,0.851675 0.505433,1.277685 0.06236,-0.0302 0.175985,-0.10584 0.343935,-0.22712 0.172558,-0.13069 0.314533,-0.24549 0.426027,-0.34575 0.800285,-0.669887 1.385287,-1.2391 1.742283,-1.739284 0.360688,-0.507131 0.482401,-0.995769 0.34726,-1.471369 -0.06647,-0.233919 -0.239276,-0.419151 -0.521465,-0.552537 -0.28183,-0.133216 -0.671467,-0.192523 -1.166492,-0.171096 -0.489174,0.01199 -1.058291,0.123369 -1.698286,0.340607 -2e-6,4e-6 -5e-6,8e-6 -7e-6,1.3e-5 z m 8.9262994,4.946446 c -0.3782171,0.0764 -0.7508397,0.0736 -1.1229238,-0.009 -0.3736409,-0.0896 -0.7040956,-0.26479 -0.9927416,-0.52845 -0.288391,-0.26343 -0.490489,-0.61564 -0.599845,-1.058921 -0.186779,-0.757113 -0.18131,-1.591992 0.04663,-2.499533 0.226179,-0.914399 0.648193,-1.818351 1.2861199,-2.695106 0.06684,-0.08079 0.1343459,-0.139025 0.2021968,-0.174686 0.067846,-0.03567 0.1499684,-0.06274 0.2462495,-0.081 0.080238,-0.01522 0.1599514,-0.01144 0.23892,0.01131 0.087003,0.02128 0.1350807,0.05739 0.1444327,0.10797 0.00535,0.02893 -0.00266,0.07522 -0.023857,0.138978 -0.014571,0.0551 -0.0244,0.09046 -0.029694,0.106455 0.047837,-0.0089 0.1029571,-0.02272 0.1654654,-0.04154 0.068887,-0.02743 0.203783,-0.05948 0.4033404,-0.09428 0.2312751,-0.04034 0.550718,-0.05731 0.9538545,-0.04624 0.4098091,0.0026 0.7132967,0.03015 0.906761,0.07691 0.5494914,0.138031 0.9782795,0.363285 1.2863552,0.666916 0.307499,0.296622 0.4784626,0.636596 0.5205001,1.016015 0.083322,0.752044 -0.061364,1.494587 -0.4052581,2.232778 -0.3439561,0.738323 -0.8076465,1.365137 -1.3889923,1.889186 -0.58207,0.52469 -1.1859637,0.85067 -1.837496,0.98218 -4.7e-6,-2e-5 -9.4e-6,-4e-5 -1.41e-5,-7e-5 z m 1.6813986,-6.343604 c -0.243473,-0.0613 -0.5409563,-0.06523 -0.8896497,-0.0091 -0.1106975,0.01781 -0.2605787,0.0497 -0.4477113,0.09631 -0.1457292,0.02841 -0.2913211,0.05741 -0.4367725,0.08699 -0.3786844,0.06734 -0.5816432,0.03231 -0.6091741,-0.112709 -0.00961,-0.05059 -0.014564,-0.0983 -0.01485,-0.143144 -2.843e-4,-0.04483 0.00219,-0.07522 0.0074,-0.09116 -0.1669065,0.03133 -0.293565,0.100774 -0.3794144,0.207472 -0.5283152,0.740267 -0.8782102,1.499141 -1.0644692,2.264896 -0.178731,0.764306 -0.181245,1.473899 -0.02811,2.125632 0.143088,0.608994 0.400028,1.017814 0.7612089,1.229544 0.3678232,0.20359 0.8092563,0.24891 1.333204,0.14355 0.5950047,-0.11964 1.1426197,-0.39864 1.6612828,-0.841039 0.5253465,-0.443144 0.9368808,-0.969341 1.2324095,-1.586492 0.3028963,-0.61803 0.4278041,-1.231184 0.3537999,-1.843968 -0.051092,-0.423061 -0.1966128,-0.753106 -0.442068,-0.988932 -0.2459699,-0.242706 -0.5915949,-0.423992 -1.0370873,-0.537843 7e-7,7e-6 1.4e-6,1.3e-5 2.2e-6,2e-5 z m 9.2594235,-0.813934 c -0.4418062,0.07204 -0.939188,0.107024 -1.4967892,0.110457 0.015192,0.114004 0.030271,0.228017 0.045238,0.342041 0.1126169,0.80878 0.1997766,1.578916 0.2647381,2.307135 0.072611,0.728497 0.09981,1.428159 0.087511,2.09654 -0.014586,0.792681 -0.1731312,1.349815 -0.46211937,1.668745 -0.29077366,0.3282 -0.74645978,0.48998 -1.37750955,0.50447 -0.40297177,0.009 -0.86945988,-0.0734 -1.41220788,-0.24141 -0.5425955,-0.16798 -1.0214343,-0.3774 -1.4379146,-0.63567 -0.4093806,-0.25889 -0.631513,-0.507433 -0.6565061,-0.756599 -0.010989,-0.109551 0.032561,-0.221083 0.1317833,-0.334017 0.099216,-0.112919 0.2151442,-0.212324 0.3477059,-0.297848 0.132516,-0.08549 0.2287993,-0.130373 0.2874133,-0.135217 0.095417,-0.0079 0.1598615,0.01285 0.1931826,0.06178 0.041222,0.05564 0.06288,0.09819 0.065143,0.127472 0.00283,0.03663 -0.0202,0.07152 -0.06893,0.104818 -0.1119587,0.0677 -0.1881462,0.122119 -0.2285971,0.162327 -0.04054,0.04029 -0.057585,0.09702 -0.051329,0.170158 0.015054,0.175999 0.1767951,0.359858 0.4797008,0.557739 0.3100884,0.19734 0.6776077,0.3633 1.1029467,0.50296 0.4249073,0.13232 0.81308661,0.19531 1.17154669,0.18648 0.30924618,-0.008 0.55755942,-0.0471 0.74723606,-0.12193 0.1893809,-0.0747 0.33727879,-0.2288 0.44447668,-0.46349 0.10699657,-0.241557 0.16353817,-0.602049 0.16626063,-1.079178 0.004491,-0.787093 -0.10973043,-2.127314 -0.38262041,-3.934761 -0.0242795,-0.168875 -0.0487586,-0.319363 -0.0733553,-0.451465 -0.0166239,-0.139579 -0.0292496,-0.256852 -0.0378,-0.352388 -0.54890831,0.0033 -0.98832986,0.0109 -1.31899067,0.01415 -0.61511972,0.005 -1.12736142,-5.47e-4 -1.55153812,-0.02587 -0.121703,-0.0071 -0.2249773,-0.04072 -0.3101602,-0.101152 -0.07759,-0.06827 -0.1202422,-0.153564 -0.1274612,-0.256097 -0.00309,-0.04392 0.018134,-0.08959 0.063877,-0.136914 0.045745,-0.04729 0.1012736,-0.07311 0.1664183,-0.07739 0.162768,-0.01068 0.3510283,-0.01124 0.5639686,-8.5e-4 0.5903463,0.01917 1.22443569,0.01979 1.91091327,0.0074 0.16322169,-0.0029 0.32650311,-0.0051 0.48983979,-0.0065 -0.0340516,-0.190819 -0.0475687,-0.326327 -0.0399597,-0.40733 0.007713,-0.06618 0.0525414,-0.129074 0.13489393,-0.188397 0.0906183,-0.05938 0.18172471,-0.08914 0.27284255,-0.08928 0.0994399,-1.49e-4 0.1780171,0.06613 0.23513233,0.198558 0.0243638,0.05861 0.0650022,0.220893 0.12020197,0.485481 0.38535623,0.0022 0.68587063,-0.0028 0.90869903,-0.01974 0.2317474,-0.02413 0.3602603,-0.03763 0.394987,-0.0443 0.2299731,-0.0221 0.3839227,-0.03065 0.4571416,-0.02769 0.082112,0.0033 0.1473329,0.01722 0.1955212,0.04148 0.056415,0.02463 0.083465,0.05906 0.081298,0.103129 -0.00506,0.10292 -0.058895,0.196094 -0.1606512,0.280026 -0.1017646,0.08393 -0.2136422,0.134555 -0.3361792,0.152103 z m 6.9226992,0.248532 c -0.2338839,0.07252 -0.58828,0.13149 -1.0684262,0.184552 -0.4721672,0.05427 -0.8552821,0.08936 -1.1569547,0.101001 -0.4713935,0.01839 -0.9443213,0.02731 -1.4199255,0.02719 -0.4812638,-0.0068 -0.7543153,-0.0079 -0.9052196,-0.01371 -0.030032,0.426357 -0.05755,0.867391 -0.082929,1.323729 -0.024803,0.450531 -0.041074,0.756343 -0.048809,0.927382 0.3154549,-0.01 0.7413131,-0.03564 1.3632563,-0.06849 0.1477672,-0.0048 0.2956073,-0.009 0.4435162,-0.0126 0.4914031,-0.01959 0.8817021,-0.112329 1.1733621,-0.284848 0.1529379,-0.08148 0.2607618,-0.117168 0.3221443,-0.107829 0.053788,0.0082 0.091595,0.04372 0.1133198,0.106501 0.030507,0.05675 0.041174,0.114163 0.032169,0.172214 -0.020265,0.13065 -0.1994973,0.250802 -0.5344365,0.364993 -0.3262766,0.108041 -0.6787563,0.173946 -1.059246,0.199493 -0.319703,0.02605 -0.6738843,0.04631 -1.067115,0.06353 -0.3924895,0.01716 -0.6495479,0.03067 -0.7720841,0.03427 -0.069631,1.255382 -0.027267,2.20363 0.1185403,2.828377 0.1999487,0.0931 0.3971235,0.16888 0.5923443,0.22723 0.19638,0.0511 0.449902,0.0948 0.7630226,0.13432 0.3127974,0.0395 0.6164773,0.0402 0.913092,0.002 0.2977657,-0.0459 0.54228,-0.11545 0.7339744,-0.21145 0.1987594,-0.0948 0.3079001,-0.19553 0.325846,-0.30437 0.00955,-0.0579 0.00771,-0.11407 -0.00563,-0.168387 -0.012157,-0.0615 -0.031606,-0.124218 -0.058418,-0.188113 -0.010945,-0.02409 -0.031053,-0.06089 -0.060341,-0.110191 -0.02087,-0.05545 -0.029039,-0.09764 -0.024385,-0.126642 0.01162,-0.07243 0.097629,-0.09613 0.2581061,-0.06971 0.1166791,0.01921 0.206642,0.0865 0.2693249,0.201459 0.071199,0.108974 0.096442,0.221441 0.076449,0.337223 -0.040019,0.23175 -0.1840901,0.44112 -0.4286524,0.63121 -0.2375202,0.19136 -0.5434699,0.32739 -0.9178757,0.41248 -0.3684915,0.0934 -0.7617079,0.11253 -1.184246,0.0598 -0.4300257,-0.0537 -0.7781347,-0.1171 -1.0483874,-0.19631 -0.270504,-0.0717 -0.469958,-0.18187 -0.5991736,-0.33366 -0.1518869,-0.21247 -0.2437656,-0.56776 -0.2749288,-1.065247 -0.018047,-0.375115 -0.025245,-0.844849 -0.022018,-1.407941 0.00108,-0.182875 0.00324,-0.375682 0.00647,-0.57833 -0.1466699,0.02514 -0.3113953,0.04575 -0.4945884,0.06249 -0.1753269,0.01 -0.3074135,0.01277 -0.3981765,0.0073 -0.090488,-0.0055 -0.1643907,-0.03553 -0.2220034,-0.09034 -0.049651,-0.0617 -0.072482,-0.132915 -0.068174,-0.213779 0.00274,-0.05146 0.012684,-0.09514 0.029889,-0.13106 0.024818,-0.03553 0.056518,-0.05591 0.095054,-0.06109 0.2520505,-0.01525 0.4389348,-0.0215 0.5526988,-0.02108 0.1653608,-0.0072 0.3309102,-0.01347 0.4966447,-0.01883 0.044603,-0.950048 0.073253,-1.723821 0.08705,-2.321261 -0.1205335,-0.009 -0.2174743,-0.01202 -0.2902593,-0.0096 -0.1851501,-0.009 -0.3702424,-0.01689 -0.5552706,-0.02373 -0.072312,-0.0041 -0.1274892,-0.02552 -0.1656705,-0.06443 -0.038175,-0.0389 -0.056139,-0.08035 -0.053746,-0.124429 0.00957,-0.176156 0.1452404,-0.287749 0.4091826,-0.33109 0.098271,-0.0089 0.2215127,-0.01605 0.3688168,-0.02092 0.1558411,-0.01169 0.259084,-0.01525 0.3076356,-0.0117 0.073504,-0.06309 0.1493232,-0.11077 0.2272987,-0.143003 0.09802,-0.04005 0.1993453,-0.05531 0.3035651,-0.04577 0.03245,0.003 0.054524,0.03091 0.066176,0.08379 0.020395,0.04625 0.029567,0.08042 0.027604,0.102439 0.5370684,0.02778 1.1710918,0.03924 1.9143247,0.04442 0.5007082,0.0028 1.2365434,-0.0364 2.2828846,-0.09058 0.1526147,-0.0047 0.3052689,-0.0089 0.4579573,-0.01262 0.079898,0.01367 0.1122416,0.06404 0.097232,0.150863 -0.01502,0.08688 -0.095803,0.151023 -0.2418554,0.193258 -3.2e-6,2e-5 -6.4e-6,4e-5 -9.5e-6,5.9e-5 z m 5.6154923,6.603316 c -0.413656,0.32271 -0.92328,0.60771 -1.526845,0.8631 -0.601384,0.2481 -1.195872,0.30138 -1.795053,0.16232 -0.634231,-0.1472 -1.111504,-0.44061 -1.442136,-0.89099 -0.3282281,-0.4563 -0.4288563,-1.04861 -0.288001,-1.776439 0.09619,-0.497028 0.292913,-1.043644 0.597158,-1.634402 0.304568,-0.59139 0.627764,-1.091572 0.969827,-1.501039 0.351149,-0.41494 0.729066,-0.740126 1.132553,-0.974993 0.411127,-0.233059 0.79166,-0.308643 1.134777,-0.228179 0.335463,0.07867 0.565313,0.251899 0.688435,0.516834 0.130944,0.267007 0.153752,0.564703 0.07135,0.892997 -0.03046,0.121337 -0.08855,0.239527 -0.173911,0.354773 -0.07597,0.109992 -0.15489,0.200349 -0.236761,0.271079 -0.08188,0.07074 -0.137821,0.102467 -0.168109,0.09505 -0.06056,-0.01483 -0.08302,-0.05434 -0.0673,-0.118659 0.0052,-0.02144 0.02798,-0.06516 0.06827,-0.131008 0.04965,-0.07119 0.08068,-0.131727 0.09297,-0.181744 0.04387,-0.178602 0.06226,-0.352053 0.05471,-0.520448 -0.0051,-0.145074 -0.05495,-0.274503 -0.149925,-0.388043 -0.09323,-0.120669 -0.209791,-0.197479 -0.349126,-0.230131 -0.557296,-0.1306 -1.199116,0.25042 -1.892376,1.147312 -0.276505,0.362104 -0.529589,0.78197 -0.760322,1.259718 -0.230623,0.477526 -0.391139,0.951241 -0.48577,1.419108 -0.06552,0.323938 -0.05946,0.632551 0.01555,0.925451 0.08224,0.29447 0.227789,0.54637 0.43623,0.75681 0.215673,0.21208 0.485538,0.35479 0.8123,0.43025 0.518572,0.11975 1.01645,0.10917 1.50046,-0.0343 0.490956,-0.14159 0.997269,-0.3515 1.521267,-0.62968 0.01843,-0.0104 0.08964,-0.0748 0.215146,-0.19356 0.127307,-0.1257 0.213106,-0.18243 0.256687,-0.17049 0.04359,0.0119 0.06972,0.0306 0.07839,0.0559 0.0087,0.0253 0.0052,0.0664 -0.01037,0.12321 -0.01953,0.0712 -0.119832,0.18076 -0.300061,0.33018 -10e-7,-10e-6 -10e-7,-2e-5 -2e-6,-3e-5 z m 8.61872,-2.455697 c -0.02224,-0.0076 -0.09366,-0.05162 -0.214953,-0.132008 -0.111466,-0.0848 -0.22289,-0.145987 -0.33409,-0.183563 -0.355534,-0.120141 -0.766962,-0.238218 -1.23277,-0.352134 -0.466009,-0.113966 -0.859696,-0.186014 -1.17902,-0.217814 -0.08543,0.345041 -0.237555,0.885242 -0.456829,1.621755 -0.209625,0.731801 -0.442966,1.498161 -0.699709,2.300221 -0.108114,0.33775 -0.235746,0.71154 -0.382881,1.12208 -0.139915,0.41267 -0.236335,0.665 -0.289105,0.75656 -0.03896,0.0728 -0.108955,0.12015 -0.209851,0.14215 -0.0938,0.0243 -0.183206,0.0229 -0.268367,-0.004 -0.04967,-0.0158 -0.08559,-0.0504 -0.107816,-0.10384 -0.02222,-0.0535 -0.02451,-0.10839 -0.0068,-0.16477 0.04224,-0.12216 0.08449,-0.24432 0.12676,-0.36647 0.215118,-0.53551 0.449872,-1.20572 0.70231,-2.00821 0.181556,-0.57716 0.381706,-1.238805 0.599279,-1.982636 0.219906,-0.75128 0.349836,-1.217355 0.390133,-1.39815 -1.542649,-0.312258 -2.605783,-0.452645 -3.144461,-0.459492 -0.0987,0.003 -0.204695,-0.01124 -0.318179,-0.04257 -0.136178,-0.0376 -0.255877,-0.12 -0.359708,-0.247368 -0.103824,-0.12737 -0.141727,-0.244208 -0.112875,-0.350885 0.01923,-0.0711 0.05558,-0.114731 0.109108,-0.130831 0.05546,-0.02322 0.117593,-0.02554 0.186297,-0.0069 0.44623,0.09789 0.806917,0.176831 1.114689,0.241016 0.69445,0.136061 1.565473,0.296122 2.621268,0.49334 0.06846,-0.218442 0.120774,-0.372189 0.157063,-0.461458 0.04383,-0.08688 0.08469,-0.124419 0.122515,-0.112614 0.143748,0.04487 0.255561,0.138082 0.335102,0.279383 0.01591,0.02826 0.01684,0.09052 0.0028,0.186772 -0.01183,0.08919 -0.02226,0.147894 -0.03122,0.176026 0.168071,0.04545 0.448691,0.09601 0.844365,0.154376 0.844911,0.14245 1.422417,0.270809 1.716931,0.370374 0.357029,0.120698 0.580117,0.244312 0.669734,0.368781 0.06228,0.08388 0.06804,0.199241 0.01748,0.346033 -0.01925,0.05589 -0.06557,0.106381 -0.138914,0.151544 -0.07092,0.03813 -0.146963,0.04326 -0.228234,0.01544 0,-3e-6 0,-7e-6 0,-1e-5 z m 0.88054,7.583107 c -0.463427,-0.16579 -0.816433,-0.33419 -1.059875,-0.50651 -0.245842,-0.16532 -0.345605,-0.3139 -0.298897,-0.44637 0.02456,-0.0697 0.115023,-0.16722 0.271601,-0.29222 0.16621,-0.12946 0.278107,-0.18396 0.335304,-0.16371 0.0858,0.0304 0.12251,0.063 0.110134,0.0978 -0.0074,0.0209 -0.03039,0.0402 -0.06886,0.0579 -0.03133,0.0203 -0.05193,0.0443 -0.06182,0.0722 -0.0074,0.0209 0.02431,0.0674 0.09516,0.13957 0.078,0.0747 0.203572,0.16237 0.376792,0.26332 0.173215,0.10094 0.391892,0.19865 0.656234,0.29343 0.421532,0.15115 0.818582,0.20409 1.191627,0.15844 0.380185,-0.0431 0.700782,-0.15427 0.961581,-0.3342 0.260794,-0.17992 0.433166,-0.3839 0.516905,-0.61245 0.109103,-0.29777 0.0523,-0.60905 -0.17101,-0.93396 -0.215838,-0.32185 -0.619948,-0.70164 -1.212586,-1.1354 -0.568411,-0.43282 -1.008807,-0.77869 -1.316317,-1.0366 -0.298242,-0.26268 -0.522499,-0.52963 -0.672352,-0.80142 -0.147387,-0.27873 -0.171942,-0.56117 -0.07225,-0.84739 0.133695,-0.383846 0.491866,-0.682169 1.076866,-0.891369 0.587396,-0.216148 1.256126,-0.319046 2.003539,-0.30783 0.749601,0.0043 1.407499,0.112165 1.972152,0.320826 0.289607,0.107021 0.424523,0.220138 0.405593,0.338903 -0.01893,0.118822 -0.05379,0.247464 -0.104553,0.38594 -0.03807,0.10386 -0.09679,0.14109 -0.176214,0.1117 -0.0361,-0.0134 -0.07562,-0.0398 -0.118587,-0.0793 -0.03321,-0.04372 -0.06537,-0.07918 -0.09645,-0.106379 -0.03831,-0.02987 -0.08387,-0.06241 -0.13669,-0.09762 -0.05281,-0.03521 -0.133527,-0.07284 -0.242182,-0.112845 -0.376527,-0.138616 -0.864856,-0.211572 -1.464229,-0.216847 -0.599627,-0.0053 -1.146911,0.06143 -1.640557,0.199748 -0.486349,0.140925 -0.774338,0.341582 -0.865043,0.599482 -0.07358,0.2092 -0.04975,0.42126 0.07068,0.63625 0.127705,0.21759 0.320444,0.43488 0.57787,0.6523 0.259766,0.21035 0.632559,0.49323 1.115935,0.8488 0.712955,0.50921 1.205008,0.97314 1.476793,1.38626 0.279363,0.41635 0.344918,0.82511 0.197557,1.2263 -0.127079,0.34598 -0.374851,0.64377 -0.743048,0.89431 -0.358492,0.24622 -0.794068,0.39398 -1.306256,0.44422 -0.507593,0.0598 -1.035522,-0.009 -1.584559,-0.20529 6e-6,-10e-6 1.2e-5,-3e-5 1.8e-5,-4e-5 z"
         id="path71"
         transform="rotate(62.12374,97.986294,371.40291)"
         aria-label="PROJECTS" />
    </g>
    <g
       id="g78"
       transform="matrix(-0.10976092,-1.2635308,1.2635308,-0.10976092,408.7311,267.07942)"
       style="filter:url(#filter105)">
      <circle
         style="fill:#cccccc;fill-opacity:1;stroke:none;stroke-width:10;stroke-linecap:square;stroke-miterlimit:1.6"
         id="circle74"
         cx="253.89922"
         cy="179.06389"
         r="57.213913" />
      <circle
         style="fill:#ececec;fill-opacity:1;stroke:none;stroke-width:11.3393;stroke-linecap:square;stroke-miterlimit:1.6"
         id="circle75"
         cx="253.89922"
         cy="179.06389"
         r="15.246161" />
      <circle
         style="fill:#1a1a1a;fill-opacity:1;stroke:none;stroke-width:4.34003;stroke-linecap:square;stroke-miterlimit:1.6"
         id="circle76"
         cx="253.89922"
         cy="179.06389"
         r="6.1479645" />
      <path
         id="path76"
         style="mix-blend-mode:normal;fill:url(#linearGradient78);stroke-width:5.45555;stroke-linecap:square;stroke-miterlimit:1.6;filter:url(#filter14-1)"
         d="m -128.47571,86.978373 29.943831,33.285987 c -9.180341,5.74442 -19.323991,8.66577 -30.430941,8.76404 -13.23429,-0.67667 -22.80029,-3.62265 -29.62287,-8.2658 z"
         transform="rotate(180,62.4682,125.43919)" />
      <path
         id="path77"
         style="mix-blend-mode:normal;fill:url(#linearGradient79);stroke-width:5.45555;stroke-linecap:square;stroke-miterlimit:1.6;filter:url(#filter14-4-0)"
         d="m 253.89922,193.46315 30.25585,34.16014 c -8.54996,5.50129 -18.63524,8.38613 -30.25585,8.65451 -10.76096,0.004 -20.91395,-2.92282 -30.45898,-8.78166 z" />
      <path
         style="font-size:16.4047px;line-height:1.1;font-family:'Ink Free';-inkscape-font-specification:'Ink Free';text-align:center;text-anchor:middle;fill:#1a1a1a;stroke-width:23.2507;stroke-linecap:square;stroke-miterlimit:1.6"
         d="m 176.45151,-289.20139 c -0.31319,0.70328 -0.77342,1.42358 -1.37361,2.16594 -0.6028,0.73191 -1.32916,1.20148 -2.19646,1.41663 -0.91808,0.22775 -1.73644,0.15361 -2.46666,-0.22927 -0.73179,-0.39276 -1.25173,-1.11758 -1.54656,-2.18164 -0.20131,-0.72651 -0.30445,-1.58438 -0.30085,-2.5716 0.004,-0.988 0.0884,-1.86702 0.25518,-2.63718 0.17476,-0.7835 0.44102,-1.46547 0.79911,-2.04432 0.36906,-0.5816 0.80315,-0.93383 1.29471,-1.05427 0.48052,-0.11773 0.8901,-0.0401 1.22439,0.23026 0.34575,0.26797 0.57346,0.64831 0.68665,1.13951 0.0418,0.18152 0.0461,0.37726 0.0136,0.58726 -0.024,0.19676 -0.0649,0.36939 -0.12272,0.51791 -0.0577,0.14854 -0.10825,0.22796 -0.15198,0.23827 -0.0874,0.0206 -0.14254,-0.017 -0.16525,-0.11292 -0.008,-0.0319 -0.008,-0.10519 1.3e-4,-0.21958 0.0161,-0.12768 0.0155,-0.2288 -0.002,-0.30347 -0.0628,-0.26662 -0.15483,-0.50941 -0.27666,-0.72827 -0.1032,-0.18947 -0.2532,-0.32841 -0.45029,-0.41631 -0.19959,-0.0985 -0.39969,-0.12332 -0.59932,-0.0743 -0.79857,0.19589 -1.36149,1.1269 -1.65539,2.77844 -0.1143,0.6644 -0.16171,1.3907 -0.14353,2.17913 0.0182,0.78817 0.1227,1.52539 0.3087,2.21158 0.12879,0.47515 0.34018,0.88277 0.63155,1.22399 0.30176,0.33852 0.65814,0.57815 1.06878,0.72031 0.42106,0.13953 0.86613,0.15002 1.33845,0.0324 0.74956,-0.18662 1.38158,-0.53425 1.9052,-1.0486 0.53395,-0.51674 1.03964,-1.13389 1.52344,-1.85285 0.0166,-0.0262 0.0647,-0.15913 0.14618,-0.40044 0.0792,-0.25175 0.15112,-0.3842 0.21458,-0.39736 0.0634,-0.0132 0.10908,-0.006 0.13687,0.022 0.0278,0.0278 0.0505,0.0847 0.0681,0.17054 0.0221,0.10754 -0.0334,0.31973 -0.16423,0.6382 0,0 1e-5,0 2e-5,0 z m 2.91373,1.93981 c -0.68552,0.12557 -1.22966,0.0269 -1.63867,-0.30506 -0.40868,-0.33169 -0.67632,-0.79087 -0.79683,-1.38121 -0.105,-0.51443 -0.14696,-1.17286 -0.11911,-1.97112 0.0386,-0.8013 0.17257,-1.53698 0.40555,-2.20666 0.0129,-0.045 0.0713,-0.22219 0.17289,-0.51809 0.11133,-0.31097 0.25388,-0.55487 0.42701,-0.73144 0.17111,-0.18731 0.36826,-0.30081 0.59012,-0.34005 0.0998,-0.0177 0.19337,-0.006 0.28042,0.0342 0.0963,0.0277 0.15085,0.0794 0.16393,0.15492 0.004,0.0216 -0.0202,0.0812 -0.0714,0.17901 -0.0421,0.0852 -0.0757,0.152 -0.10132,0.20106 -0.29711,0.50762 -0.51808,0.99917 -0.6661,1.47192 -0.20207,0.60535 -0.33468,1.1942 -0.40139,1.76472 -0.0561,0.56884 -0.02,1.16986 0.10411,1.80421 0.16661,0.85128 0.74787,1.17163 1.73643,0.99338 0.46473,-0.0838 0.86849,-0.29758 1.2169,-0.64359 0.35865,-0.34761 0.62897,-0.73893 0.80967,-1.17612 0.17911,-0.44818 0.24651,-0.83912 0.19685,-1.17481 -0.056,-0.37872 -0.22744,-0.69074 -0.5181,-0.93426 -0.29033,-0.24325 -0.6776,-0.48798 -1.16335,-0.72979 -0.31659,-0.15909 -0.55129,-0.29065 -0.70478,-0.39804 -0.15314,-0.10713 -0.2375,-0.20348 -0.25246,-0.28983 -0.0224,-0.12938 0.0529,-0.24813 0.22688,-0.3554 0.1721,-0.11802 0.38522,-0.19804 0.63866,-0.23917 0.14321,-0.0233 0.23874,-0.0273 0.28623,-0.0128 0.0458,0.004 0.0721,0.0273 0.079,0.0705 0.003,0.0216 -0.0126,0.0629 -0.0479,0.12396 -0.0261,0.0485 -0.0365,0.0889 -0.0313,0.12135 0.005,0.0324 0.13258,0.12267 0.38031,0.27225 0.49375,0.28833 0.91245,0.59707 1.25769,0.92307 0.34531,0.32605 0.5497,0.73967 0.61868,1.23796 0.0585,0.42293 -0.029,0.93078 -0.25345,1.52732 -0.22431,0.59615 -0.57907,1.13598 -1.06095,1.62364 -0.48389,0.47714 -1.06827,0.77642 -1.76413,0.90389 -1e-5,2e-5 -3e-5,4e-5 -4e-5,7e-5 z m 9.55046,-0.69829 c -0.1009,0.006 -0.18822,-0.0165 -0.26222,-0.0667 -0.0733,-0.0393 -0.11277,-0.10244 -0.11809,-0.18962 -0.0271,-0.44427 -0.0394,-1.14294 -0.0326,-2.08134 0.003,-1.00808 -0.0129,-1.83988 -0.0518,-2.50646 -0.0375,-0.64341 -0.0896,-1.16423 -0.15786,-1.56527 -0.0577,-0.41211 -0.15955,-0.61391 -0.30462,-0.60483 -0.37938,0.0238 -0.76905,0.5159 -1.14389,1.47676 -0.36403,0.94718 -0.75653,2.20211 -1.14843,3.75478 -0.0565,0.22526 -0.1123,0.4506 -0.16742,0.67601 -0.0301,0.11297 -0.0933,0.20744 -0.18931,0.28366 -0.0857,0.0751 -0.1798,0.11831 -0.28259,0.12974 -0.12336,0.0137 -0.20674,0.0123 -0.25037,-0.005 -0.0436,-0.017 -0.0767,-0.0792 -0.0994,-0.18656 -0.0919,-0.44039 -0.18462,-0.88069 -0.27801,-1.3209 -0.16901,-0.77245 -0.34041,-1.54458 -0.51417,-2.31637 -0.18646,-0.92482 -0.37739,-1.72667 -0.5736,-2.40798 -0.0533,-0.15875 -0.0854,-0.28135 -0.096,-0.3682 -0.02,-0.16272 0.0368,-0.30186 0.17119,-0.41696 0.13307,-0.12591 0.29579,-0.19994 0.48743,-0.22159 0.11271,-0.0127 0.22101,0.23918 0.32355,0.75554 0.11369,0.51512 0.26191,1.35079 0.44264,2.50712 0.053,0.28548 0.10576,0.57099 0.15828,0.85653 0.20302,1.08137 0.32544,1.78468 0.36609,2.0704 0.0243,-0.0685 0.0429,-0.14193 0.0558,-0.22022 0.0222,-0.0903 0.0492,-0.1865 0.081,-0.28868 0.4084,-1.58013 0.84112,-2.89864 1.27661,-3.95266 0.44587,-1.06635 0.93331,-1.61508 1.42977,-1.64542 0.35048,-0.0214 0.60355,0.25523 0.75628,0.82646 0.1636,0.56073 0.28144,1.28552 0.35726,2.17873 0.0809,0.99526 0.16497,2.43498 0.2562,4.34764 0.006,0.13083 -0.0393,0.24225 -0.13599,0.33454 -0.0962,0.10323 -0.21455,0.15863 -0.3558,0.16659 1e-5,-1e-5 2e-5,-2e-5 4e-5,-3e-5 z m 8.44064,-6.62233 c -0.95778,0.0855 -1.66853,0.17378 -1.73456,0.18211 -2e-5,0 -0.005,6.4e-4 -0.005,6.5e-4 -0.36426,0.0423 -0.72741,0.0878 -1.08947,0.13626 -0.0185,0.56817 -0.0324,1.16319 -0.0421,1.78634 0.001,0.62298 0.009,1.17065 0.0248,1.64113 0.0203,0.63452 0.0756,1.12422 0.16487,1.4665 0.0887,0.34024 0.13741,0.53902 0.14526,0.58059 -0.004,0.10928 -0.0742,0.20451 -0.20834,0.2865 -0.12451,0.0934 -0.24158,0.13816 -0.35215,0.13433 -0.0603,-0.002 -0.10988,-0.0256 -0.1489,-0.0705 -0.0393,-0.034 -0.0729,-0.0952 -0.10087,-0.18348 -0.0565,-0.15471 -0.10992,-0.44039 -0.16157,-0.85701 -0.0414,-0.41617 -0.0726,-0.87624 -0.0932,-1.37916 -0.0217,-0.44823 -0.0374,-0.96812 -0.0469,-1.55804 0.001,-0.60105 0.008,-1.17966 0.0188,-1.7368 -0.62107,0.086 -1.25597,0.20237 -1.90292,0.35007 -0.58453,0.12599 -0.92032,0.19454 -1.03354,0.19729 -0.13141,0.003 -0.25828,-0.0316 -0.38119,-0.10435 -0.11193,-0.0731 -0.17031,-0.17488 -0.17452,-0.30579 -0.005,-0.14182 0.0421,-0.23619 0.14037,-0.28281 0.0981,-0.0466 0.26385,-0.0733 0.49636,-0.0786 0.16663,-0.004 0.40868,-0.0361 0.7302,-0.0947 0.32586,-0.0705 0.52175,-0.11241 0.61549,-0.13575 0.73231,-0.14191 1.26775,-0.22944 1.52426,-0.26608 0.005,-0.22905 -4.9e-4,-0.5302 -0.0159,-0.90164 -0.0128,-0.50349 -0.0171,-0.88454 -0.0121,-1.14734 0.008,-0.42616 0.0259,-0.7531 0.0539,-0.98228 0.0398,-0.23968 0.10285,-0.45153 0.18968,-0.63559 0.0993,-0.21647 0.28007,-0.32222 0.54155,-0.31513 0.1069,0.003 0.17768,0.0214 0.21222,0.0553 0.0345,0.0338 0.0503,0.0944 0.0473,0.18185 -0.002,0.066 -0.0384,0.25527 -0.10749,0.57073 -0.0691,0.31534 -0.11109,0.73432 -0.1275,1.25892 -0.0127,0.40442 -0.0153,0.85745 -0.009,1.36085 9.5e-4,0.14763 0.002,0.29525 0.003,0.44288 0.26078,-0.0312 0.62734,-0.0866 1.14201,-0.16468 0.4941,-0.0737 1.14926,-0.17126 1.89994,-0.27114 0.0922,-0.0144 0.17195,-0.0844 0.23974,-0.21015 0.0791,-0.12482 0.15309,-0.18416 0.22132,-0.17809 0.12505,0.0111 0.24381,0.0934 0.35499,0.24659 0.12353,0.14343 0.17769,0.2861 0.16388,0.42739 -0.0181,0.18485 -0.11607,0.31777 -0.29266,0.39987 -0.166,0.0834 -0.4618,0.1323 -0.89004,0.15312 -1e-5,-2e-5 -2e-5,-4e-5 -2e-5,-6e-5 z m 7.82886,6.77403 c -0.0289,0.12798 -0.11259,0.26566 -0.25002,0.41403 -0.135,0.13767 -0.25138,0.19577 -0.35032,0.17406 -0.16811,-0.0369 -0.27269,-0.17656 -0.31487,-0.42008 -0.0422,-0.2434 -0.0327,-0.51507 0.0299,-0.8144 0.0521,-0.24906 0.23117,-1.03104 0.53005,-2.29992 0.0479,-0.20205 0.0958,-0.40408 0.14376,-0.60611 0.0517,-0.24595 0.0252,-0.43569 -0.0808,-0.56929 -0.64961,0.71488 -1.22433,1.33448 -1.74042,1.86232 -0.51512,0.52684 -1.12072,1.00659 -1.81159,1.44976 -0.68904,0.43232 -1.35019,0.60773 -2.00795,0.52609 -0.31885,-0.0396 -0.5552,-0.17614 -0.71178,-0.41319 -0.14636,-0.23566 -0.20279,-0.52726 -0.16586,-0.87471 0.046,-0.4325 0.29203,-1.00956 0.75625,-1.71289 0.46623,-0.71528 1.05312,-1.41918 1.77079,-2.10068 0.71931,-0.69243 1.44049,-1.23193 2.15022,-1.62018 0.46769,-0.25202 0.83998,-0.40676 1.1065,-0.46787 0.26923,-0.072 0.50037,-0.0887 0.69141,-0.0511 0.17985,0.0353 0.35461,0.12611 0.52288,0.27214 0.1683,0.14606 0.2986,0.32972 0.39079,0.5504 0.0922,0.22067 0.11077,0.45393 0.0576,0.69954 -0.0716,0.33109 -0.23306,0.62577 -0.48066,0.88598 0.0978,-0.007 0.19561,-0.0142 0.29353,-0.021 0.11924,0.0258 0.15814,0.18538 0.11636,0.47825 -0.0268,0.17311 -0.0923,0.52229 -0.19684,1.04749 -0.0938,0.52649 -0.17396,0.96415 -0.23885,1.30681 0.002,-0.009 -0.19754,1.04047 -0.19574,1.03105 -0.0631,0.33297 -0.11091,0.59657 -0.14347,0.79083 -0.007,0.0769 0.016,0.16587 0.0671,0.26699 0.0535,0.0904 0.074,0.16239 0.062,0.21566 2e-5,0 4e-5,-1e-5 6e-5,-1e-5 z m -0.38912,-4.79395 c 0.19463,-0.29475 0.33209,-0.62897 0.4094,-1.00338 0.0464,-0.22467 0.0149,-0.43206 -0.0962,-0.62177 -0.0979,-0.19815 -0.26408,-0.32068 -0.49762,-0.366 -0.27792,-0.0539 -0.67015,0.0608 -1.16644,0.34985 -0.56996,0.32013 -1.18517,0.78297 -1.83125,1.39128 -0.64452,0.59761 -1.17973,1.21379 -1.61305,1.84008 -0.43271,0.62541 -0.66528,1.13998 -0.71226,1.52872 -0.0393,0.32553 0.0835,0.50447 0.36632,0.54071 0.54655,0.07 1.10059,-0.071 1.67889,-0.4225 0.57803,-0.35136 1.1239,-0.78427 1.63788,-1.30174 0.52812,-0.52811 1.12889,-1.17164 1.82433,-1.93525 z m 5.90792,4.75653 c -0.72933,0.49496 -1.34523,0.8635 -1.86412,1.10094 -0.50824,0.23996 -0.97847,0.30122 -1.4209,0.18247 -0.37343,-0.10024 -0.63792,-0.35451 -0.79865,-0.76716 -0.15066,-0.40978 -0.17344,-0.84311 -0.0617,-1.29956 0.16579,-0.67708 0.54936,-1.50001 1.16985,-2.44573 0.62202,-0.94807 1.31964,-1.72596 2.0967,-2.32981 0.77643,-0.60336 1.46468,-0.81533 2.03694,-0.64339 0.24216,0.0728 0.42546,0.22054 0.54848,0.44195 0.0692,0.12456 0.12273,0.27883 0.16036,0.46272 0.0376,0.18384 0.0361,0.33844 -0.004,0.46358 -0.0562,0.17743 -0.14925,0.37735 -0.27855,0.60057 -0.11525,0.21608 -0.19922,0.31585 -0.25253,0.29916 -0.10655,-0.0334 -0.15804,-0.11229 -0.15446,-0.23721 0.004,-0.12486 0.0274,-0.27789 0.0716,-0.45889 0.0517,-0.28176 0.074,-0.46953 0.0672,-0.56319 -0.004,-0.10411 -0.0381,-0.16619 -0.10338,-0.1861 -0.51141,-0.1559 -1.11338,0.0441 -1.78455,0.60468 -0.66868,0.55049 -1.26933,1.24836 -1.80581,2.09078 -0.53222,0.82958 -0.85606,1.50195 -0.98364,1.99726 -0.18012,0.69927 -0.0486,1.10426 0.38752,1.22197 0.31845,0.086 0.62947,0.0818 0.93632,-0.0128 0.31684,-0.0919 0.66463,-0.24699 1.04645,-0.46425 0.71665,-0.41654 1.29399,-0.77522 1.73581,-1.09643 0.0299,-0.0243 0.11202,-0.0855 0.24386,-0.18053 0.14598,-0.10254 0.23993,-0.14686 0.28103,-0.13353 0.12335,0.04 0.16952,0.10709 0.13891,0.20067 -0.0206,0.063 -0.19102,0.21879 -0.5091,0.47324 -0.30741,0.25731 -0.60726,0.48358 -0.90006,0.67865 -2e-5,-10e-6 -4e-5,-10e-6 -7e-5,-2e-5 z m 9.13077,-0.9142 c -0.9456,-0.23215 -1.63981,-0.3836 -1.69728,-0.39595 -0.35668,-0.0811 -0.71359,-0.15973 -1.07067,-0.23578 -0.2088,0.52975 -0.42229,1.08653 -0.6412,1.67113 -0.20869,0.58818 -0.38498,1.10758 -0.52847,1.55674 -0.194,0.60563 -0.30546,1.08623 -0.33449,1.43953 -0.0289,0.35168 -0.0483,0.55452 -0.0547,0.59701 -0.0408,0.10162 -0.13977,0.16796 -0.2964,0.19989 -0.15115,0.0459 -0.27892,0.0484 -0.38399,0.007 -0.0573,-0.0225 -0.0971,-0.0615 -0.11943,-0.11725 -0.0263,-0.0455 -0.0379,-0.11464 -0.035,-0.20746 -0.002,-0.1652 0.0432,-0.45291 0.13472,-0.8635 0.10121,-0.40667 0.22716,-0.85118 0.37795,-1.33254 0.13117,-0.43019 0.29246,-0.92575 0.48355,-1.48536 0.20522,-0.5663 0.4073,-1.10995 0.60685,-1.63153 -0.6138,-0.12936 -1.25156,-0.23659 -1.91147,-0.31971 -0.59323,-0.0821 -0.93419,-0.13389 -1.04118,-0.1702 -0.12483,-0.0424 -0.23226,-0.11893 -0.3228,-0.22992 -0.0801,-0.10748 -0.0998,-0.22349 -0.0585,-0.34816 0.0448,-0.13507 0.12132,-0.20776 0.22984,-0.21772 0.10842,-0.01 0.27349,0.0221 0.49403,0.0973 0.15796,0.0538 0.39693,0.10688 0.7194,0.16217 0.33007,0.0455 0.5299,0.0732 0.62542,0.0832 0.737,0.11698 1.27022,0.21603 1.52341,0.26828 0.0821,-0.21449 0.17942,-0.50012 0.29112,-0.85564 0.15884,-0.47901 0.28433,-0.84002 0.37822,-1.08602 0.1523,-0.39908 0.27998,-0.70145 0.38378,-0.90812 0.11845,-0.2126 0.24904,-0.39114 0.39216,-0.53552 0.16573,-0.17077 0.3694,-0.20973 0.60954,-0.11555 0.0982,0.0385 0.15756,0.0796 0.17817,0.12305 0.0206,0.0435 0.0148,0.1059 -0.0174,0.18736 -0.0243,0.0614 -0.12165,0.2281 -0.29222,0.50248 -0.17053,0.27432 -0.35109,0.65558 -0.54337,1.14491 -0.14822,0.3772 -0.30355,0.80379 -0.46707,1.28084 -0.0489,0.13958 -0.0978,0.27916 -0.14672,0.41872 0.49618,0.11304 1.49597,0.28936 2.99787,0.58733 0.0912,0.016 0.18882,-0.0248 0.29322,-0.12228 0.11469,-0.093 0.20326,-0.1256 0.26526,-0.0981 0.11365,0.0504 0.19841,0.16599 0.25346,0.34649 0.0698,0.17514 0.075,0.32758 0.0166,0.45719 -0.0763,0.16957 -0.21124,0.26458 -0.4041,0.28612 -0.18312,0.0262 -0.47806,-0.022 -0.88811,-0.14052 0,-2e-5 0,-4e-5 0,-6e-5 z"
         id="text106"
         transform="rotate(87.060093,-0.9441334,-1.184165)"
         aria-label="Contact" />
    </g>
  </g>
</svg>
