<?xml version="1.0" encoding="UTF-8" standalone="no"?>
<!-- Created with Inkscape (http://www.inkscape.org/) -->

<svg
   width="655.23486"
   height="639.74286"
   viewBox="0 0 173.36422 169.2653"
   version="1.1"
   id="svg1"
   xmlns:xlink="http://www.w3.org/1999/xlink"
   xmlns="http://www.w3.org/2000/svg"
   xmlns:svg="http://www.w3.org/2000/svg">
  <defs
     id="defs1">
    <linearGradient
       id="linearGradient6">
      <stop
         style="stop-color:#ff0000;stop-opacity:0.1;"
         offset="0"
         id="stop6" />
      <stop
         style="stop-color:#fff600;stop-opacity:0.10196079;"
         offset="0.25214195"
         id="stop8" />
      <stop
         style="stop-color:#43ff00;stop-opacity:0.10196079;"
         offset="0.48186529"
         id="stop10" />
      <stop
         style="stop-color:#00ffff;stop-opacity:0.10196079;"
         offset="0.74093264"
         id="stop11" />
      <stop
         style="stop-color:#0001fe;stop-opacity:0.10196079;"
         offset="0.9300673"
         id="stop12" />
      <stop
         style="stop-color:#9f00ff;stop-opacity:0.1;"
         offset="1"
         id="stop7" />
    </linearGradient>
    <filter
       style="color-interpolation-filters:sRGB"
       id="filter14-1"
       x="-0.22270308"
       y="-0.31805375"
       width="1.4454062"
       height="1.6361075">
      <feGaussianBlur
         stdDeviation="5.5725701"
         id="feGaussianBlur14-4" />
    </filter>
    <filter
       style="color-interpolation-filters:sRGB"
       id="filter14-4-0"
       x="-0.23718088"
       y="-0.33634272"
       width="1.4743618"
       height="1.6726854">
      <feGaussianBlur
         stdDeviation="6.0001656"
         id="feGaussianBlur14-3-7" />
    </filter>
    <linearGradient
       xlink:href="#linearGradient6"
       id="linearGradient78"
       gradientUnits="userSpaceOnUse"
       gradientTransform="matrix(0.54555531,0,0,0.54555531,-5.196862,116.24669)"
       x1="-248.26454"
       y1="-15.265503"
       x2="-202.58525"
       y2="-14.954308" />
    <linearGradient
       xlink:href="#linearGradient6"
       id="linearGradient79"
       gradientUnits="userSpaceOnUse"
       gradientTransform="matrix(0.54555531,0,0,0.54555531,377.17807,222.73146)"
       x1="-248.26454"
       y1="-15.265503"
       x2="-202.58525"
       y2="-14.954308" />
    <filter
       style="color-interpolation-filters:sRGB"
       id="filter105"
       x="-0.1048696"
       y="-0.22174817"
       width="1.2097392"
       height="1.4524647">
      <feFlood
         result="flood"
         in="SourceGraphic"
         flood-opacity="1.000000"
         flood-color="rgb(0,0,0)"
         id="feFlood103" />
      <feGaussianBlur
         result="blur"
         in="SourceGraphic"
         stdDeviation="5.000000"
         id="feGaussianBlur103" />
      <feOffset
         result="offset"
         in="blur"
         dx="0.000000"
         dy="0.000000"
         id="feOffset103" />
      <feComposite
         result="comp1"
         operator="in"
         in="flood"
         in2="offset"
         id="feComposite104" />
      <feComposite
         result="comp2"
         operator="over"
         in="SourceGraphic"
         in2="comp1"
         id="feComposite105" />
    </filter>
    <clipPath
       clipPathUnits="userSpaceOnUse"
       id="clipPath2">
      <rect
         style="fill:#1a1a1a;stroke-width:9.81583;stroke-linecap:square;stroke-miterlimit:1.6"
         id="rect4"
         width="136.69139"
         height="133.45955"
         x="88.073318"
         y="-335.17303"
         transform="rotate(94.964731)" />
    </clipPath>
  </defs>
  <g
     id="layer1"
     transform="translate(-577.7823,181.06624)">
    <g
       id="g78"
       transform="matrix(-0.10976092,-1.2635308,1.2635308,-0.10976092,466.07986,244.03011)"
       style="filter:url(#filter105)"
       clip-path="url(#clipPath2)">
      <circle
         style="fill:#cccccc;fill-opacity:1;stroke:none;stroke-width:10;stroke-linecap:square;stroke-miterlimit:1.6"
         id="circle74"
         cx="253.89922"
         cy="179.06389"
         r="57.213913" />
      <circle
         style="fill:#ececec;fill-opacity:1;stroke:none;stroke-width:11.3393;stroke-linecap:square;stroke-miterlimit:1.6"
         id="circle75"
         cx="253.89922"
         cy="179.06389"
         r="15.246161" />
      <circle
         style="fill:#1a1a1a;fill-opacity:1;stroke:none;stroke-width:4.34003;stroke-linecap:square;stroke-miterlimit:1.6"
         id="circle76"
         cx="253.89922"
         cy="179.06389"
         r="6.1479645" />
      <path
         id="path76"
         style="mix-blend-mode:normal;fill:url(#linearGradient78);stroke-width:5.45555;stroke-linecap:square;stroke-miterlimit:1.6;filter:url(#filter14-1)"
         d="m -128.47571,86.978373 29.943831,33.285987 c -9.180341,5.74442 -19.323991,8.66577 -30.430941,8.76404 -13.23429,-0.67667 -22.80029,-3.62265 -29.62287,-8.2658 z"
         transform="rotate(180,62.4682,125.43919)" />
      <path
         id="path77"
         style="mix-blend-mode:normal;fill:url(#linearGradient79);stroke-width:5.45555;stroke-linecap:square;stroke-miterlimit:1.6;filter:url(#filter14-4-0)"
         d="m 253.89922,193.46315 30.25585,34.16014 c -8.54996,5.50129 -18.63524,8.38613 -30.25585,8.65451 -10.76096,0.004 -20.91395,-2.92282 -30.45898,-8.78166 z" />
      <path
         style="font-size:16.4047px;line-height:1.1;font-family:'Ink Free';-inkscape-font-specification:'Ink Free';text-align:center;text-anchor:middle;fill:#1a1a1a;stroke-width:23.2507;stroke-linecap:square;stroke-miterlimit:1.6"
         d="m 176.45151,-289.20139 c -0.31319,0.70328 -0.77342,1.42358 -1.37361,2.16594 -0.6028,0.73191 -1.32916,1.20148 -2.19646,1.41663 -0.91808,0.22775 -1.73644,0.15361 -2.46666,-0.22927 -0.73179,-0.39276 -1.25173,-1.11758 -1.54656,-2.18164 -0.20131,-0.72651 -0.30445,-1.58438 -0.30085,-2.5716 0.004,-0.988 0.0884,-1.86702 0.25518,-2.63718 0.17476,-0.7835 0.44102,-1.46547 0.79911,-2.04432 0.36906,-0.5816 0.80315,-0.93383 1.29471,-1.05427 0.48052,-0.11773 0.8901,-0.0401 1.22439,0.23026 0.34575,0.26797 0.57346,0.64831 0.68665,1.13951 0.0418,0.18152 0.0461,0.37726 0.0136,0.58726 -0.024,0.19676 -0.0649,0.36939 -0.12272,0.51791 -0.0577,0.14854 -0.10825,0.22796 -0.15198,0.23827 -0.0874,0.0206 -0.14254,-0.017 -0.16525,-0.11292 -0.008,-0.0319 -0.008,-0.10519 1.3e-4,-0.21958 0.0161,-0.12768 0.0155,-0.2288 -0.002,-0.30347 -0.0628,-0.26662 -0.15483,-0.50941 -0.27666,-0.72827 -0.1032,-0.18947 -0.2532,-0.32841 -0.45029,-0.41631 -0.19959,-0.0985 -0.39969,-0.12332 -0.59932,-0.0743 -0.79857,0.19589 -1.36149,1.1269 -1.65539,2.77844 -0.1143,0.6644 -0.16171,1.3907 -0.14353,2.17913 0.0182,0.78817 0.1227,1.52539 0.3087,2.21158 0.12879,0.47515 0.34018,0.88277 0.63155,1.22399 0.30176,0.33852 0.65814,0.57815 1.06878,0.72031 0.42106,0.13953 0.86613,0.15002 1.33845,0.0324 0.74956,-0.18662 1.38158,-0.53425 1.9052,-1.0486 0.53395,-0.51674 1.03964,-1.13389 1.52344,-1.85285 0.0166,-0.0262 0.0647,-0.15913 0.14618,-0.40044 0.0792,-0.25175 0.15112,-0.3842 0.21458,-0.39736 0.0634,-0.0132 0.10908,-0.006 0.13687,0.022 0.0278,0.0278 0.0505,0.0847 0.0681,0.17054 0.0221,0.10754 -0.0334,0.31973 -0.16423,0.6382 0,0 1e-5,0 2e-5,0 z m 2.91373,1.93981 c -0.68552,0.12557 -1.22966,0.0269 -1.63867,-0.30506 -0.40868,-0.33169 -0.67632,-0.79087 -0.79683,-1.38121 -0.105,-0.51443 -0.14696,-1.17286 -0.11911,-1.97112 0.0386,-0.8013 0.17257,-1.53698 0.40555,-2.20666 0.0129,-0.045 0.0713,-0.22219 0.17289,-0.51809 0.11133,-0.31097 0.25388,-0.55487 0.42701,-0.73144 0.17111,-0.18731 0.36826,-0.30081 0.59012,-0.34005 0.0998,-0.0177 0.19337,-0.006 0.28042,0.0342 0.0963,0.0277 0.15085,0.0794 0.16393,0.15492 0.004,0.0216 -0.0202,0.0812 -0.0714,0.17901 -0.0421,0.0852 -0.0757,0.152 -0.10132,0.20106 -0.29711,0.50762 -0.51808,0.99917 -0.6661,1.47192 -0.20207,0.60535 -0.33468,1.1942 -0.40139,1.76472 -0.0561,0.56884 -0.02,1.16986 0.10411,1.80421 0.16661,0.85128 0.74787,1.17163 1.73643,0.99338 0.46473,-0.0838 0.86849,-0.29758 1.2169,-0.64359 0.35865,-0.34761 0.62897,-0.73893 0.80967,-1.17612 0.17911,-0.44818 0.24651,-0.83912 0.19685,-1.17481 -0.056,-0.37872 -0.22744,-0.69074 -0.5181,-0.93426 -0.29033,-0.24325 -0.6776,-0.48798 -1.16335,-0.72979 -0.31659,-0.15909 -0.55129,-0.29065 -0.70478,-0.39804 -0.15314,-0.10713 -0.2375,-0.20348 -0.25246,-0.28983 -0.0224,-0.12938 0.0529,-0.24813 0.22688,-0.3554 0.1721,-0.11802 0.38522,-0.19804 0.63866,-0.23917 0.14321,-0.0233 0.23874,-0.0273 0.28623,-0.0128 0.0458,0.004 0.0721,0.0273 0.079,0.0705 0.003,0.0216 -0.0126,0.0629 -0.0479,0.12396 -0.0261,0.0485 -0.0365,0.0889 -0.0313,0.12135 0.005,0.0324 0.13258,0.12267 0.38031,0.27225 0.49375,0.28833 0.91245,0.59707 1.25769,0.92307 0.34531,0.32605 0.5497,0.73967 0.61868,1.23796 0.0585,0.42293 -0.029,0.93078 -0.25345,1.52732 -0.22431,0.59615 -0.57907,1.13598 -1.06095,1.62364 -0.48389,0.47714 -1.06827,0.77642 -1.76413,0.90389 -1e-5,2e-5 -3e-5,4e-5 -4e-5,7e-5 z m 9.55046,-0.69829 c -0.1009,0.006 -0.18822,-0.0165 -0.26222,-0.0667 -0.0733,-0.0393 -0.11277,-0.10244 -0.11809,-0.18962 -0.0271,-0.44427 -0.0394,-1.14294 -0.0326,-2.08134 0.003,-1.00808 -0.0129,-1.83988 -0.0518,-2.50646 -0.0375,-0.64341 -0.0896,-1.16423 -0.15786,-1.56527 -0.0577,-0.41211 -0.15955,-0.61391 -0.30462,-0.60483 -0.37938,0.0238 -0.76905,0.5159 -1.14389,1.47676 -0.36403,0.94718 -0.75653,2.20211 -1.14843,3.75478 -0.0565,0.22526 -0.1123,0.4506 -0.16742,0.67601 -0.0301,0.11297 -0.0933,0.20744 -0.18931,0.28366 -0.0857,0.0751 -0.1798,0.11831 -0.28259,0.12974 -0.12336,0.0137 -0.20674,0.0123 -0.25037,-0.005 -0.0436,-0.017 -0.0767,-0.0792 -0.0994,-0.18656 -0.0919,-0.44039 -0.18462,-0.88069 -0.27801,-1.3209 -0.16901,-0.77245 -0.34041,-1.54458 -0.51417,-2.31637 -0.18646,-0.92482 -0.37739,-1.72667 -0.5736,-2.40798 -0.0533,-0.15875 -0.0854,-0.28135 -0.096,-0.3682 -0.02,-0.16272 0.0368,-0.30186 0.17119,-0.41696 0.13307,-0.12591 0.29579,-0.19994 0.48743,-0.22159 0.11271,-0.0127 0.22101,0.23918 0.32355,0.75554 0.11369,0.51512 0.26191,1.35079 0.44264,2.50712 0.053,0.28548 0.10576,0.57099 0.15828,0.85653 0.20302,1.08137 0.32544,1.78468 0.36609,2.0704 0.0243,-0.0685 0.0429,-0.14193 0.0558,-0.22022 0.0222,-0.0903 0.0492,-0.1865 0.081,-0.28868 0.4084,-1.58013 0.84112,-2.89864 1.27661,-3.95266 0.44587,-1.06635 0.93331,-1.61508 1.42977,-1.64542 0.35048,-0.0214 0.60355,0.25523 0.75628,0.82646 0.1636,0.56073 0.28144,1.28552 0.35726,2.17873 0.0809,0.99526 0.16497,2.43498 0.2562,4.34764 0.006,0.13083 -0.0393,0.24225 -0.13599,0.33454 -0.0962,0.10323 -0.21455,0.15863 -0.3558,0.16659 1e-5,-1e-5 2e-5,-2e-5 4e-5,-3e-5 z m 8.44064,-6.62233 c -0.95778,0.0855 -1.66853,0.17378 -1.73456,0.18211 -2e-5,0 -0.005,6.4e-4 -0.005,6.5e-4 -0.36426,0.0423 -0.72741,0.0878 -1.08947,0.13626 -0.0185,0.56817 -0.0324,1.16319 -0.0421,1.78634 0.001,0.62298 0.009,1.17065 0.0248,1.64113 0.0203,0.63452 0.0756,1.12422 0.16487,1.4665 0.0887,0.34024 0.13741,0.53902 0.14526,0.58059 -0.004,0.10928 -0.0742,0.20451 -0.20834,0.2865 -0.12451,0.0934 -0.24158,0.13816 -0.35215,0.13433 -0.0603,-0.002 -0.10988,-0.0256 -0.1489,-0.0705 -0.0393,-0.034 -0.0729,-0.0952 -0.10087,-0.18348 -0.0565,-0.15471 -0.10992,-0.44039 -0.16157,-0.85701 -0.0414,-0.41617 -0.0726,-0.87624 -0.0932,-1.37916 -0.0217,-0.44823 -0.0374,-0.96812 -0.0469,-1.55804 0.001,-0.60105 0.008,-1.17966 0.0188,-1.7368 -0.62107,0.086 -1.25597,0.20237 -1.90292,0.35007 -0.58453,0.12599 -0.92032,0.19454 -1.03354,0.19729 -0.13141,0.003 -0.25828,-0.0316 -0.38119,-0.10435 -0.11193,-0.0731 -0.17031,-0.17488 -0.17452,-0.30579 -0.005,-0.14182 0.0421,-0.23619 0.14037,-0.28281 0.0981,-0.0466 0.26385,-0.0733 0.49636,-0.0786 0.16663,-0.004 0.40868,-0.0361 0.7302,-0.0947 0.32586,-0.0705 0.52175,-0.11241 0.61549,-0.13575 0.73231,-0.14191 1.26775,-0.22944 1.52426,-0.26608 0.005,-0.22905 -4.9e-4,-0.5302 -0.0159,-0.90164 -0.0128,-0.50349 -0.0171,-0.88454 -0.0121,-1.14734 0.008,-0.42616 0.0259,-0.7531 0.0539,-0.98228 0.0398,-0.23968 0.10285,-0.45153 0.18968,-0.63559 0.0993,-0.21647 0.28007,-0.32222 0.54155,-0.31513 0.1069,0.003 0.17768,0.0214 0.21222,0.0553 0.0345,0.0338 0.0503,0.0944 0.0473,0.18185 -0.002,0.066 -0.0384,0.25527 -0.10749,0.57073 -0.0691,0.31534 -0.11109,0.73432 -0.1275,1.25892 -0.0127,0.40442 -0.0153,0.85745 -0.009,1.36085 9.5e-4,0.14763 0.002,0.29525 0.003,0.44288 0.26078,-0.0312 0.62734,-0.0866 1.14201,-0.16468 0.4941,-0.0737 1.14926,-0.17126 1.89994,-0.27114 0.0922,-0.0144 0.17195,-0.0844 0.23974,-0.21015 0.0791,-0.12482 0.15309,-0.18416 0.22132,-0.17809 0.12505,0.0111 0.24381,0.0934 0.35499,0.24659 0.12353,0.14343 0.17769,0.2861 0.16388,0.42739 -0.0181,0.18485 -0.11607,0.31777 -0.29266,0.39987 -0.166,0.0834 -0.4618,0.1323 -0.89004,0.15312 -1e-5,-2e-5 -2e-5,-4e-5 -2e-5,-6e-5 z m 7.82886,6.77403 c -0.0289,0.12798 -0.11259,0.26566 -0.25002,0.41403 -0.135,0.13767 -0.25138,0.19577 -0.35032,0.17406 -0.16811,-0.0369 -0.27269,-0.17656 -0.31487,-0.42008 -0.0422,-0.2434 -0.0327,-0.51507 0.0299,-0.8144 0.0521,-0.24906 0.23117,-1.03104 0.53005,-2.29992 0.0479,-0.20205 0.0958,-0.40408 0.14376,-0.60611 0.0517,-0.24595 0.0252,-0.43569 -0.0808,-0.56929 -0.64961,0.71488 -1.22433,1.33448 -1.74042,1.86232 -0.51512,0.52684 -1.12072,1.00659 -1.81159,1.44976 -0.68904,0.43232 -1.35019,0.60773 -2.00795,0.52609 -0.31885,-0.0396 -0.5552,-0.17614 -0.71178,-0.41319 -0.14636,-0.23566 -0.20279,-0.52726 -0.16586,-0.87471 0.046,-0.4325 0.29203,-1.00956 0.75625,-1.71289 0.46623,-0.71528 1.05312,-1.41918 1.77079,-2.10068 0.71931,-0.69243 1.44049,-1.23193 2.15022,-1.62018 0.46769,-0.25202 0.83998,-0.40676 1.1065,-0.46787 0.26923,-0.072 0.50037,-0.0887 0.69141,-0.0511 0.17985,0.0353 0.35461,0.12611 0.52288,0.27214 0.1683,0.14606 0.2986,0.32972 0.39079,0.5504 0.0922,0.22067 0.11077,0.45393 0.0576,0.69954 -0.0716,0.33109 -0.23306,0.62577 -0.48066,0.88598 0.0978,-0.007 0.19561,-0.0142 0.29353,-0.021 0.11924,0.0258 0.15814,0.18538 0.11636,0.47825 -0.0268,0.17311 -0.0923,0.52229 -0.19684,1.04749 -0.0938,0.52649 -0.17396,0.96415 -0.23885,1.30681 0.002,-0.009 -0.19754,1.04047 -0.19574,1.03105 -0.0631,0.33297 -0.11091,0.59657 -0.14347,0.79083 -0.007,0.0769 0.016,0.16587 0.0671,0.26699 0.0535,0.0904 0.074,0.16239 0.062,0.21566 2e-5,0 4e-5,-1e-5 6e-5,-1e-5 z m -0.38912,-4.79395 c 0.19463,-0.29475 0.33209,-0.62897 0.4094,-1.00338 0.0464,-0.22467 0.0149,-0.43206 -0.0962,-0.62177 -0.0979,-0.19815 -0.26408,-0.32068 -0.49762,-0.366 -0.27792,-0.0539 -0.67015,0.0608 -1.16644,0.34985 -0.56996,0.32013 -1.18517,0.78297 -1.83125,1.39128 -0.64452,0.59761 -1.17973,1.21379 -1.61305,1.84008 -0.43271,0.62541 -0.66528,1.13998 -0.71226,1.52872 -0.0393,0.32553 0.0835,0.50447 0.36632,0.54071 0.54655,0.07 1.10059,-0.071 1.67889,-0.4225 0.57803,-0.35136 1.1239,-0.78427 1.63788,-1.30174 0.52812,-0.52811 1.12889,-1.17164 1.82433,-1.93525 z m 5.90792,4.75653 c -0.72933,0.49496 -1.34523,0.8635 -1.86412,1.10094 -0.50824,0.23996 -0.97847,0.30122 -1.4209,0.18247 -0.37343,-0.10024 -0.63792,-0.35451 -0.79865,-0.76716 -0.15066,-0.40978 -0.17344,-0.84311 -0.0617,-1.29956 0.16579,-0.67708 0.54936,-1.50001 1.16985,-2.44573 0.62202,-0.94807 1.31964,-1.72596 2.0967,-2.32981 0.77643,-0.60336 1.46468,-0.81533 2.03694,-0.64339 0.24216,0.0728 0.42546,0.22054 0.54848,0.44195 0.0692,0.12456 0.12273,0.27883 0.16036,0.46272 0.0376,0.18384 0.0361,0.33844 -0.004,0.46358 -0.0562,0.17743 -0.14925,0.37735 -0.27855,0.60057 -0.11525,0.21608 -0.19922,0.31585 -0.25253,0.29916 -0.10655,-0.0334 -0.15804,-0.11229 -0.15446,-0.23721 0.004,-0.12486 0.0274,-0.27789 0.0716,-0.45889 0.0517,-0.28176 0.074,-0.46953 0.0672,-0.56319 -0.004,-0.10411 -0.0381,-0.16619 -0.10338,-0.1861 -0.51141,-0.1559 -1.11338,0.0441 -1.78455,0.60468 -0.66868,0.55049 -1.26933,1.24836 -1.80581,2.09078 -0.53222,0.82958 -0.85606,1.50195 -0.98364,1.99726 -0.18012,0.69927 -0.0486,1.10426 0.38752,1.22197 0.31845,0.086 0.62947,0.0818 0.93632,-0.0128 0.31684,-0.0919 0.66463,-0.24699 1.04645,-0.46425 0.71665,-0.41654 1.29399,-0.77522 1.73581,-1.09643 0.0299,-0.0243 0.11202,-0.0855 0.24386,-0.18053 0.14598,-0.10254 0.23993,-0.14686 0.28103,-0.13353 0.12335,0.04 0.16952,0.10709 0.13891,0.20067 -0.0206,0.063 -0.19102,0.21879 -0.5091,0.47324 -0.30741,0.25731 -0.60726,0.48358 -0.90006,0.67865 -2e-5,-10e-6 -4e-5,-10e-6 -7e-5,-2e-5 z m 9.13077,-0.9142 c -0.9456,-0.23215 -1.63981,-0.3836 -1.69728,-0.39595 -0.35668,-0.0811 -0.71359,-0.15973 -1.07067,-0.23578 -0.2088,0.52975 -0.42229,1.08653 -0.6412,1.67113 -0.20869,0.58818 -0.38498,1.10758 -0.52847,1.55674 -0.194,0.60563 -0.30546,1.08623 -0.33449,1.43953 -0.0289,0.35168 -0.0483,0.55452 -0.0547,0.59701 -0.0408,0.10162 -0.13977,0.16796 -0.2964,0.19989 -0.15115,0.0459 -0.27892,0.0484 -0.38399,0.007 -0.0573,-0.0225 -0.0971,-0.0615 -0.11943,-0.11725 -0.0263,-0.0455 -0.0379,-0.11464 -0.035,-0.20746 -0.002,-0.1652 0.0432,-0.45291 0.13472,-0.8635 0.10121,-0.40667 0.22716,-0.85118 0.37795,-1.33254 0.13117,-0.43019 0.29246,-0.92575 0.48355,-1.48536 0.20522,-0.5663 0.4073,-1.10995 0.60685,-1.63153 -0.6138,-0.12936 -1.25156,-0.23659 -1.91147,-0.31971 -0.59323,-0.0821 -0.93419,-0.13389 -1.04118,-0.1702 -0.12483,-0.0424 -0.23226,-0.11893 -0.3228,-0.22992 -0.0801,-0.10748 -0.0998,-0.22349 -0.0585,-0.34816 0.0448,-0.13507 0.12132,-0.20776 0.22984,-0.21772 0.10842,-0.01 0.27349,0.0221 0.49403,0.0973 0.15796,0.0538 0.39693,0.10688 0.7194,0.16217 0.33007,0.0455 0.5299,0.0732 0.62542,0.0832 0.737,0.11698 1.27022,0.21603 1.52341,0.26828 0.0821,-0.21449 0.17942,-0.50012 0.29112,-0.85564 0.15884,-0.47901 0.28433,-0.84002 0.37822,-1.08602 0.1523,-0.39908 0.27998,-0.70145 0.38378,-0.90812 0.11845,-0.2126 0.24904,-0.39114 0.39216,-0.53552 0.16573,-0.17077 0.3694,-0.20973 0.60954,-0.11555 0.0982,0.0385 0.15756,0.0796 0.17817,0.12305 0.0206,0.0435 0.0148,0.1059 -0.0174,0.18736 -0.0243,0.0614 -0.12165,0.2281 -0.29222,0.50248 -0.17053,0.27432 -0.35109,0.65558 -0.54337,1.14491 -0.14822,0.3772 -0.30355,0.80379 -0.46707,1.28084 -0.0489,0.13958 -0.0978,0.27916 -0.14672,0.41872 0.49618,0.11304 1.49597,0.28936 2.99787,0.58733 0.0912,0.016 0.18882,-0.0248 0.29322,-0.12228 0.11469,-0.093 0.20326,-0.1256 0.26526,-0.0981 0.11365,0.0504 0.19841,0.16599 0.25346,0.34649 0.0698,0.17514 0.075,0.32758 0.0166,0.45719 -0.0763,0.16957 -0.21124,0.26458 -0.4041,0.28612 -0.18312,0.0262 -0.47806,-0.022 -0.88811,-0.14052 0,-2e-5 0,-4e-5 0,-6e-5 z"
         id="text106"
         transform="rotate(87.060093,-0.9441334,-1.184165)"
         aria-label="Contact" />
    </g>
  </g>
</svg>
