<?xml version="1.0" encoding="UTF-8" standalone="no"?>
<svg
   viewBox="0 0 24 24"
   version="1.1"
   id="svg1"
   sodipodi:docname="link.svg"
   inkscape:version="1.4 (86a8ad7, 2024-10-11)"
   xmlns:inkscape="http://www.inkscape.org/namespaces/inkscape"
   xmlns:sodipodi="http://sodipodi.sourceforge.net/DTD/sodipodi-0.dtd"
   xmlns="http://www.w3.org/2000/svg"
   xmlns:svg="http://www.w3.org/2000/svg">
  <defs
     id="defs1" />
  <sodipodi:namedview
     id="namedview1"
     pagecolor="#505050"
     bordercolor="#eeeeee"
     borderopacity="1"
     inkscape:showpageshadow="0"
     inkscape:pageopacity="0"
     inkscape:pagecheckerboard="0"
     inkscape:deskcolor="#505050"
     inkscape:zoom="36.445462"
     inkscape:cx="12.045395"
     inkscape:cy="13.787725"
     inkscape:window-width="2560"
     inkscape:window-height="1417"
     inkscape:window-x="1912"
     inkscape:window-y="-8"
     inkscape:window-maximized="1"
     inkscape:current-layer="svg1" />
  <path
     d="M3.9,12C3.9,10.29 5.29,8.9 7,8.9H11V7H7A5,5 0 0,0 2,12A5,5 0 0,0 7,17H11V15.1H7C5.29,15.1 3.9,13.71 3.9,12M8,13H16V11H8V13M17,7H13V8.9H17C18.71,8.9 20.1,10.29 20.1,12C20.1,13.71 18.71,15.1 17,15.1H13V17H17A5,5 0 0,0 22,12A5,5 0 0,0 17,7Z"
     id="path1"
     style="fill:#ffffff" />
</svg>
