<?xml version="1.0" encoding="UTF-8" standalone="no"?>
<!-- Created with Inkscape (http://www.inkscape.org/) -->

<svg
   width="1920"
   height="308.87512"
   viewBox="0 0 507.99999 81.723209"
   version="1.1"
   id="svg1"
   xmlns:xlink="http://www.w3.org/1999/xlink"
   xmlns="http://www.w3.org/2000/svg"
   xmlns:svg="http://www.w3.org/2000/svg">
  <defs
     id="defs1">
    <linearGradient
       id="linearGradient15">
      <stop
         style="stop-color:#000000;stop-opacity:1;"
         offset="0"
         id="stop15" />
      <stop
         style="stop-color:#3b3b3b;stop-opacity:1;"
         offset="1"
         id="stop16" />
    </linearGradient>
    <linearGradient
       id="linearGradient6">
      <stop
         style="stop-color:#ff0000;stop-opacity:0.1;"
         offset="0"
         id="stop6" />
      <stop
         style="stop-color:#fff600;stop-opacity:0.10196079;"
         offset="0.25214195"
         id="stop8" />
      <stop
         style="stop-color:#43ff00;stop-opacity:0.10196079;"
         offset="0.48186529"
         id="stop10" />
      <stop
         style="stop-color:#00ffff;stop-opacity:0.10196079;"
         offset="0.74093264"
         id="stop11" />
      <stop
         style="stop-color:#0001fe;stop-opacity:0.10196079;"
         offset="0.9300673"
         id="stop12" />
      <stop
         style="stop-color:#9f00ff;stop-opacity:0.1;"
         offset="1"
         id="stop7" />
    </linearGradient>
    <filter
       style="color-interpolation-filters:sRGB"
       id="filter4"
       x="-0.029183364"
       y="-0.20788857"
       width="1.0583667"
       height="1.4157771">
      <feFlood
         result="flood"
         in="SourceGraphic"
         flood-opacity="1.000000"
         flood-color="rgb(0,0,0)"
         id="feFlood3" />
      <feGaussianBlur
         result="blur"
         in="SourceGraphic"
         stdDeviation="5.000000"
         id="feGaussianBlur3" />
      <feOffset
         result="offset"
         in="blur"
         dx="0.000000"
         dy="0.000000"
         id="feOffset3" />
      <feComposite
         result="comp1"
         operator="in"
         in="flood"
         in2="offset"
         id="feComposite3" />
      <feComposite
         result="comp2"
         operator="over"
         in="SourceGraphic"
         in2="comp1"
         id="feComposite4" />
    </filter>
    <filter
       style="color-interpolation-filters:sRGB"
       id="filter14-1"
       x="-0.22270308"
       y="-0.31805375"
       width="1.4454062"
       height="1.6361075">
      <feGaussianBlur
         stdDeviation="5.5725701"
         id="feGaussianBlur14-4" />
    </filter>
    <filter
       style="color-interpolation-filters:sRGB"
       id="filter14-4-0"
       x="-0.23718088"
       y="-0.33634272"
       width="1.4743618"
       height="1.6726854">
      <feGaussianBlur
         stdDeviation="6.0001656"
         id="feGaussianBlur14-3-7" />
    </filter>
    <linearGradient
       xlink:href="#linearGradient6"
       id="linearGradient71"
       gradientUnits="userSpaceOnUse"
       gradientTransform="matrix(0.54555531,0,0,0.54555531,-5.196862,116.24669)"
       x1="-248.26454"
       y1="-15.265503"
       x2="-202.58525"
       y2="-14.954308" />
    <linearGradient
       xlink:href="#linearGradient6"
       id="linearGradient72"
       gradientUnits="userSpaceOnUse"
       gradientTransform="matrix(0.54555531,0,0,0.54555531,377.17807,222.73146)"
       x1="-248.26454"
       y1="-15.265503"
       x2="-202.58525"
       y2="-14.954308" />
    <linearGradient
       xlink:href="#linearGradient15"
       id="linearGradient73"
       gradientUnits="userSpaceOnUse"
       gradientTransform="matrix(1.566821,2.0070593e-8,-2.0070593e-8,1.566821,150.13593,147.72334)"
       x1="-106.43737"
       y1="-27.844938"
       x2="-82.617798"
       y2="-27.844938" />
    <filter
       style="color-interpolation-filters:sRGB"
       id="filter101"
       x="-0.1048696"
       y="-0.22174817"
       width="1.2097392"
       height="1.4524647">
      <feFlood
         result="flood"
         in="SourceGraphic"
         flood-opacity="1.000000"
         flood-color="rgb(0,0,0)"
         id="feFlood100" />
      <feGaussianBlur
         result="blur"
         in="SourceGraphic"
         stdDeviation="5.000000"
         id="feGaussianBlur100" />
      <feOffset
         result="offset"
         in="blur"
         dx="0.000000"
         dy="0.000000"
         id="feOffset100" />
      <feComposite
         result="comp1"
         operator="in"
         in="flood"
         in2="offset"
         id="feComposite100" />
      <feComposite
         result="comp2"
         operator="over"
         in="SourceGraphic"
         in2="comp1"
         id="feComposite101" />
    </filter>
  </defs>
  <g
     id="layer1"
     transform="translate(-150.78092,-290.04205)">
    <g
       id="g71"
       transform="matrix(1.1491302,0.53670964,-0.53670964,1.1491302,58.523001,-180.87707)"
       style="filter:url(#filter101)">
      <circle
         style="fill:#cccccc;fill-opacity:1;stroke:none;stroke-width:10;stroke-linecap:square;stroke-miterlimit:1.6"
         id="circle67"
         cx="253.89922"
         cy="179.06389"
         r="57.213913" />
      <circle
         style="fill:#ececec;fill-opacity:1;stroke:none;stroke-width:11.3393;stroke-linecap:square;stroke-miterlimit:1.6"
         id="circle68"
         cx="253.89922"
         cy="179.06389"
         r="15.246161" />
      <circle
         style="fill:#1a1a1a;fill-opacity:1;stroke:none;stroke-width:4.34003;stroke-linecap:square;stroke-miterlimit:1.6"
         id="circle69"
         cx="253.89922"
         cy="179.06389"
         r="6.1479645" />
      <path
         id="path69"
         style="mix-blend-mode:normal;fill:url(#linearGradient71);stroke-width:5.45555;stroke-linecap:square;stroke-miterlimit:1.6;filter:url(#filter14-1)"
         d="m -128.47571,86.978373 29.943831,33.285987 c -9.180341,5.74442 -19.323991,8.66577 -30.430941,8.76404 -13.23429,-0.67667 -22.80029,-3.62265 -29.62287,-8.2658 z"
         transform="rotate(180,62.4682,125.43919)" />
      <path
         id="path70"
         style="mix-blend-mode:normal;fill:url(#linearGradient72);stroke-width:5.45555;stroke-linecap:square;stroke-miterlimit:1.6;filter:url(#filter14-4-0)"
         d="m 253.89922,193.46315 30.25585,34.16014 c -8.54996,5.50129 -18.63524,8.38613 -30.25585,8.65451 -10.76096,0.004 -20.91395,-2.92282 -30.45898,-8.78166 z" />
      <path
         style="font-size:11.0548px;line-height:1.1;font-family:'Ink Free';-inkscape-font-specification:'Ink Free';text-align:center;text-anchor:middle;fill:url(#linearGradient73);stroke-width:15.6682;stroke-linecap:square;stroke-miterlimit:1.6"
         d="m -21.108091,101.99141 c -0.174933,0.19061 -0.354712,0.37676 -0.539484,0.55861 -0.186018,0.18308 -0.30448,0.29823 -0.365283,0.35156 0.414464,0.79883 0.756086,1.48972 1.023337,2.064 0.08718,0.18733 0.178741,0.33212 0.274117,0.43434 0.09884,0.0925 0.155918,0.15575 0.171381,0.18919 0.03409,0.0737 0.0259,0.15059 -0.02414,0.2307 -0.04695,0.0868 -0.10934,0.14839 -0.187452,0.18496 -0.09758,0.0457 -0.192476,0.005 -0.284997,-0.1229 -0.0063,-0.0133 -0.04459,-0.0688 -0.11484,-0.16613 -0.06371,-0.10041 -0.141647,-0.24739 -0.233503,-0.44062 -0.244751,-0.51487 -0.674722,-1.36883 -1.278814,-2.52995 -0.307212,-0.59105 -0.519977,-1.00943 -0.641453,-1.2639 -0.101752,-0.21316 -0.191975,-0.41123 -0.270675,-0.59451 -0.08193,-0.19004 -0.138565,-0.31803 -0.170402,-0.38479 -0.397158,0.32882 -0.727528,0.63645 -0.991964,0.91778 -0.08236,0.099 -0.192481,0.24997 -0.32743,0.45141 -0.06043,0.0889 -0.12224,0.17466 -0.185481,0.25717 -0.05629,0.0789 -0.105073,0.12921 -0.146735,0.15093 -0.05552,0.029 -0.11598,0.0315 -0.181529,0.008 -0.06555,-0.0239 -0.115489,-0.0684 -0.149713,-0.13362 -0.0445,-0.0848 0.03245,-0.25914 0.234915,-0.52167 0.198915,-0.26886 0.46063,-0.56017 0.78648,-0.87025 0.333094,-0.31376 0.653483,-0.57937 0.957703,-0.797059 0.358898,-0.251773 0.780675,-0.487862 1.264176,-0.703934 0.666557,-0.297877 1.232047,-0.44014 1.683559,-0.435813 0.449813,-0.0025 0.737972,0.161316 0.867674,0.482925 0.163042,0.404274 0.127926,0.823731 -0.09476,1.259331 -0.225989,0.4297 -0.586535,0.90106 -1.074712,1.42458 1e-5,3e-5 2.1e-5,5e-5 3.1e-5,8e-5 z m -1.201259,-2.326444 c -0.334783,0.149574 -0.666396,0.325444 -0.993629,0.527444 0.01773,0.0568 0.06478,0.18576 0.1411,0.38629 0.0835,0.19723 0.165992,0.3828 0.2473,0.55661 0.117708,0.24237 0.235371,0.48477 0.352991,0.72718 0.08209,0.15729 0.180804,0.35944 0.296481,0.60695 0.141079,-0.0824 0.399137,-0.32459 0.793497,-0.72837 0.37622,-0.40312 0.676663,-0.78978 0.898686,-1.1646 0.219002,-0.38137 0.276225,-0.70763 0.163252,-0.980928 -0.09583,-0.231817 -0.320967,-0.33147 -0.67667,-0.293362 -0.355165,0.03805 -0.764609,0.157949 -1.223011,0.362754 1e-6,1.1e-5 2e-6,2.1e-5 3e-6,3.2e-5 z m 10.781124,2.143994 c -0.06974,0.0186 -0.138804,0.0257 -0.207315,0.0213 -0.07069,-0.0115 -0.177747,-0.0356 -0.323296,-0.072 -0.511415,-0.14099 -1.165925,-0.23088 -1.959393,-0.25345 -0.348916,-0.007 -0.761574,0.005 -1.234854,0.039 -0.467059,0.0248 -0.839562,0.0567 -1.103347,0.0884 0.184095,0.43994 0.367583,0.88009 0.550464,1.32048 0.07335,0.18543 0.152726,0.33362 0.237661,0.44449 0.08737,0.11779 0.137068,0.19443 0.14926,0.22916 0.0269,0.0766 0.01168,0.1524 -0.04526,0.22741 -0.05449,0.082 -0.121911,0.13738 -0.202588,0.16639 -0.100776,0.0362 -0.190952,-0.0134 -0.270801,-0.14939 -0.005,-0.0138 -0.03782,-0.0727 -0.09842,-0.17633 -0.05384,-0.10604 -0.117499,-0.25982 -0.190666,-0.46097 -0.04763,-0.13096 -0.16409,-0.40879 -0.348262,-0.82789 -0.06005,-0.14314 -0.117628,-0.27933 -0.172722,-0.40856 -0.05763,-0.1362 -0.105459,-0.25622 -0.143471,-0.36028 -0.0287,-0.0131 -0.06574,-0.0271 -0.1111,-0.0419 -0.03833,-0.0174 -0.077,-0.0464 -0.116022,-0.0871 -0.04413,-0.0546 -0.08608,-0.11384 -0.12583,-0.17786 -0.03976,-0.064 -0.06606,-0.11332 -0.07888,-0.14796 -0.01794,-0.0485 -0.01785,-0.0918 3.64e-4,-0.13004 0.01821,-0.0382 0.04942,-0.0851 0.09371,-0.14072 -0.685231,-1.735546 -1.059335,-2.681641 -1.157815,-2.949333 -0.0816,-0.221799 -0.153017,-0.42753 -0.214237,-0.617476 -0.06126,-0.190053 -0.103171,-0.315909 -0.126145,-0.378433 -0.04764,0.02617 -0.16997,0.08903 -0.392269,0.204504 -0.21756,0.113008 -0.389496,0.210538 -0.514811,0.290407 -0.443577,0.28943 -0.768928,0.536746 -0.975654,0.732076 -0.217796,0.192311 -0.416942,0.394897 -0.597317,0.607173 -0.04932,0.06886 -0.09762,0.129416 -0.144999,0.181694 -0.05763,0.04861 -0.115795,0.08553 -0.174621,0.110776 -0.05882,0.02524 -0.120446,0.02366 -0.185058,-0.0047 -0.06752,-0.03514 -0.11751,-0.08993 -0.149808,-0.164493 -0.05577,-0.12875 0.114655,-0.381471 0.521346,-0.752215 0.406616,-0.370674 0.874142,-0.724149 1.402124,-1.055874 0.294863,-0.185597 0.685521,-0.39415 1.169848,-0.617716 0.482472,-0.230808 0.943079,-0.418931 1.378471,-0.565887 0.746338,-0.251906 1.410328,-0.378488 1.979752,-0.388551 0.57774,-0.01243 1.038184,0.08338 1.379148,0.279015 0.348953,0.193557 0.568275,0.466677 0.663416,0.814972 0.122351,0.447903 0.08903,0.869312 -0.09162,1.264236 -0.18085,0.395367 -0.458423,0.773884 -0.82983,1.14029 -0.36683,0.366961 -0.867363,0.808686 -1.504626,1.352498 -0.158635,0.14702 -0.318459,0.28772 -0.479713,0.42218 -0.153131,0.13112 -0.258493,0.22454 -0.311572,0.27427 0.01485,0.0417 0.02955,0.0718 0.04407,0.0901 0.825329,-0.10584 1.646524,-0.165 2.459952,-0.17778 0.08111,-0.002 0.162172,-0.004 0.243184,-0.005 0.837877,-0.004 1.473832,0.0243 1.871352,0.0593 0.402681,0.0285 0.613599,0.089 0.635684,0.17457 0.0221,0.0857 0.01348,0.19815 -0.02504,0.33775 -0.03851,0.13957 -0.09575,0.21947 -0.172471,0.23992 7e-6,3e-5 1.4e-5,6e-5 2.1e-5,9e-5 z m -5.801479,-5.395096 c -0.47505,0.161249 -0.77771,0.277876 -0.892359,0.334047 0.0097,0.0513 0.03929,0.170291 0.08878,0.356366 0.05713,0.183432 0.118136,0.365483 0.182918,0.546187 0.214421,0.550596 0.428412,1.101347 0.641973,1.652251 0.168811,0.425775 0.337289,0.851675 0.505433,1.277685 0.06236,-0.0302 0.175985,-0.10584 0.343935,-0.22712 0.172558,-0.13069 0.314533,-0.24549 0.426027,-0.34575 0.800285,-0.669887 1.385287,-1.2391 1.742283,-1.739284 0.360688,-0.507131 0.482401,-0.995769 0.34726,-1.471369 -0.06647,-0.233919 -0.239276,-0.419151 -0.521465,-0.552537 -0.28183,-0.133216 -0.671467,-0.192523 -1.166492,-0.171096 -0.489174,0.01199 -1.058291,0.123369 -1.698286,0.340607 -2e-6,4e-6 -5e-6,8e-6 -7e-6,1.3e-5 z m 8.9262994,4.946446 c -0.3782171,0.0764 -0.7508397,0.0736 -1.1229238,-0.009 -0.3736409,-0.0896 -0.7040956,-0.26479 -0.9927416,-0.52845 -0.288391,-0.26343 -0.490489,-0.61564 -0.599845,-1.058921 -0.186779,-0.757113 -0.18131,-1.591992 0.04663,-2.499533 0.226179,-0.914399 0.648193,-1.818351 1.2861199,-2.695106 0.06684,-0.08079 0.1343459,-0.139025 0.2021968,-0.174686 0.067846,-0.03567 0.1499684,-0.06274 0.2462495,-0.081 0.080238,-0.01522 0.1599514,-0.01144 0.23892,0.01131 0.087003,0.02128 0.1350807,0.05739 0.1444327,0.10797 0.00535,0.02893 -0.00266,0.07522 -0.023857,0.138978 -0.014571,0.0551 -0.0244,0.09046 -0.029694,0.106455 0.047837,-0.0089 0.1029571,-0.02272 0.1654654,-0.04154 0.068887,-0.02743 0.203783,-0.05948 0.4033404,-0.09428 0.2312751,-0.04034 0.550718,-0.05731 0.9538545,-0.04624 0.4098091,0.0026 0.7132967,0.03015 0.906761,0.07691 0.5494914,0.138031 0.9782795,0.363285 1.2863552,0.666916 0.307499,0.296622 0.4784626,0.636596 0.5205001,1.016015 0.083322,0.752044 -0.061364,1.494587 -0.4052581,2.232778 -0.3439561,0.738323 -0.8076465,1.365137 -1.3889923,1.889186 -0.58207,0.52469 -1.1859637,0.85067 -1.837496,0.98218 -4.7e-6,-2e-5 -9.4e-6,-4e-5 -1.41e-5,-7e-5 z m 1.6813986,-6.343604 c -0.243473,-0.0613 -0.5409563,-0.06523 -0.8896497,-0.0091 -0.1106975,0.01781 -0.2605787,0.0497 -0.4477113,0.09631 -0.1457292,0.02841 -0.2913211,0.05741 -0.4367725,0.08699 -0.3786844,0.06734 -0.5816432,0.03231 -0.6091741,-0.112709 -0.00961,-0.05059 -0.014564,-0.0983 -0.01485,-0.143144 -2.843e-4,-0.04483 0.00219,-0.07522 0.0074,-0.09116 -0.1669065,0.03133 -0.293565,0.100774 -0.3794144,0.207472 -0.5283152,0.740267 -0.8782102,1.499141 -1.0644692,2.264896 -0.178731,0.764306 -0.181245,1.473899 -0.02811,2.125632 0.143088,0.608994 0.400028,1.017814 0.7612089,1.229544 0.3678232,0.20359 0.8092563,0.24891 1.333204,0.14355 0.5950047,-0.11964 1.1426197,-0.39864 1.6612828,-0.841039 0.5253465,-0.443144 0.9368808,-0.969341 1.2324095,-1.586492 0.3028963,-0.61803 0.4278041,-1.231184 0.3537999,-1.843968 -0.051092,-0.423061 -0.1966128,-0.753106 -0.442068,-0.988932 -0.2459699,-0.242706 -0.5915949,-0.423992 -1.0370873,-0.537843 7e-7,7e-6 1.4e-6,1.3e-5 2.2e-6,2e-5 z m 9.2594235,-0.813934 c -0.4418062,0.07204 -0.939188,0.107024 -1.4967892,0.110457 0.015192,0.114004 0.030271,0.228017 0.045238,0.342041 0.1126169,0.80878 0.1997766,1.578916 0.2647381,2.307135 0.072611,0.728497 0.09981,1.428159 0.087511,2.09654 -0.014586,0.792681 -0.1731312,1.349815 -0.46211937,1.668745 -0.29077366,0.3282 -0.74645978,0.48998 -1.37750955,0.50447 -0.40297177,0.009 -0.86945988,-0.0734 -1.41220788,-0.24141 -0.5425955,-0.16798 -1.0214343,-0.3774 -1.4379146,-0.63567 -0.4093806,-0.25889 -0.631513,-0.507433 -0.6565061,-0.756599 -0.010989,-0.109551 0.032561,-0.221083 0.1317833,-0.334017 0.099216,-0.112919 0.2151442,-0.212324 0.3477059,-0.297848 0.132516,-0.08549 0.2287993,-0.130373 0.2874133,-0.135217 0.095417,-0.0079 0.1598615,0.01285 0.1931826,0.06178 0.041222,0.05564 0.06288,0.09819 0.065143,0.127472 0.00283,0.03663 -0.0202,0.07152 -0.06893,0.104818 -0.1119587,0.0677 -0.1881462,0.122119 -0.2285971,0.162327 -0.04054,0.04029 -0.057585,0.09702 -0.051329,0.170158 0.015054,0.175999 0.1767951,0.359858 0.4797008,0.557739 0.3100884,0.19734 0.6776077,0.3633 1.1029467,0.50296 0.4249073,0.13232 0.81308661,0.19531 1.17154669,0.18648 0.30924618,-0.008 0.55755942,-0.0471 0.74723606,-0.12193 0.1893809,-0.0747 0.33727879,-0.2288 0.44447668,-0.46349 0.10699657,-0.241557 0.16353817,-0.602049 0.16626063,-1.079178 0.004491,-0.787093 -0.10973043,-2.127314 -0.38262041,-3.934761 -0.0242795,-0.168875 -0.0487586,-0.319363 -0.0733553,-0.451465 -0.0166239,-0.139579 -0.0292496,-0.256852 -0.0378,-0.352388 -0.54890831,0.0033 -0.98832986,0.0109 -1.31899067,0.01415 -0.61511972,0.005 -1.12736142,-5.47e-4 -1.55153812,-0.02587 -0.121703,-0.0071 -0.2249773,-0.04072 -0.3101602,-0.101152 -0.07759,-0.06827 -0.1202422,-0.153564 -0.1274612,-0.256097 -0.00309,-0.04392 0.018134,-0.08959 0.063877,-0.136914 0.045745,-0.04729 0.1012736,-0.07311 0.1664183,-0.07739 0.162768,-0.01068 0.3510283,-0.01124 0.5639686,-8.5e-4 0.5903463,0.01917 1.22443569,0.01979 1.91091327,0.0074 0.16322169,-0.0029 0.32650311,-0.0051 0.48983979,-0.0065 -0.0340516,-0.190819 -0.0475687,-0.326327 -0.0399597,-0.40733 0.007713,-0.06618 0.0525414,-0.129074 0.13489393,-0.188397 0.0906183,-0.05938 0.18172471,-0.08914 0.27284255,-0.08928 0.0994399,-1.49e-4 0.1780171,0.06613 0.23513233,0.198558 0.0243638,0.05861 0.0650022,0.220893 0.12020197,0.485481 0.38535623,0.0022 0.68587063,-0.0028 0.90869903,-0.01974 0.2317474,-0.02413 0.3602603,-0.03763 0.394987,-0.0443 0.2299731,-0.0221 0.3839227,-0.03065 0.4571416,-0.02769 0.082112,0.0033 0.1473329,0.01722 0.1955212,0.04148 0.056415,0.02463 0.083465,0.05906 0.081298,0.103129 -0.00506,0.10292 -0.058895,0.196094 -0.1606512,0.280026 -0.1017646,0.08393 -0.2136422,0.134555 -0.3361792,0.152103 z m 6.9226992,0.248532 c -0.2338839,0.07252 -0.58828,0.13149 -1.0684262,0.184552 -0.4721672,0.05427 -0.8552821,0.08936 -1.1569547,0.101001 -0.4713935,0.01839 -0.9443213,0.02731 -1.4199255,0.02719 -0.4812638,-0.0068 -0.7543153,-0.0079 -0.9052196,-0.01371 -0.030032,0.426357 -0.05755,0.867391 -0.082929,1.323729 -0.024803,0.450531 -0.041074,0.756343 -0.048809,0.927382 0.3154549,-0.01 0.7413131,-0.03564 1.3632563,-0.06849 0.1477672,-0.0048 0.2956073,-0.009 0.4435162,-0.0126 0.4914031,-0.01959 0.8817021,-0.112329 1.1733621,-0.284848 0.1529379,-0.08148 0.2607618,-0.117168 0.3221443,-0.107829 0.053788,0.0082 0.091595,0.04372 0.1133198,0.106501 0.030507,0.05675 0.041174,0.114163 0.032169,0.172214 -0.020265,0.13065 -0.1994973,0.250802 -0.5344365,0.364993 -0.3262766,0.108041 -0.6787563,0.173946 -1.059246,0.199493 -0.319703,0.02605 -0.6738843,0.04631 -1.067115,0.06353 -0.3924895,0.01716 -0.6495479,0.03067 -0.7720841,0.03427 -0.069631,1.255382 -0.027267,2.20363 0.1185403,2.828377 0.1999487,0.0931 0.3971235,0.16888 0.5923443,0.22723 0.19638,0.0511 0.449902,0.0948 0.7630226,0.13432 0.3127974,0.0395 0.6164773,0.0402 0.913092,0.002 0.2977657,-0.0459 0.54228,-0.11545 0.7339744,-0.21145 0.1987594,-0.0948 0.3079001,-0.19553 0.325846,-0.30437 0.00955,-0.0579 0.00771,-0.11407 -0.00563,-0.168387 -0.012157,-0.0615 -0.031606,-0.124218 -0.058418,-0.188113 -0.010945,-0.02409 -0.031053,-0.06089 -0.060341,-0.110191 -0.02087,-0.05545 -0.029039,-0.09764 -0.024385,-0.126642 0.01162,-0.07243 0.097629,-0.09613 0.2581061,-0.06971 0.1166791,0.01921 0.206642,0.0865 0.2693249,0.201459 0.071199,0.108974 0.096442,0.221441 0.076449,0.337223 -0.040019,0.23175 -0.1840901,0.44112 -0.4286524,0.63121 -0.2375202,0.19136 -0.5434699,0.32739 -0.9178757,0.41248 -0.3684915,0.0934 -0.7617079,0.11253 -1.184246,0.0598 -0.4300257,-0.0537 -0.7781347,-0.1171 -1.0483874,-0.19631 -0.270504,-0.0717 -0.469958,-0.18187 -0.5991736,-0.33366 -0.1518869,-0.21247 -0.2437656,-0.56776 -0.2749288,-1.065247 -0.018047,-0.375115 -0.025245,-0.844849 -0.022018,-1.407941 0.00108,-0.182875 0.00324,-0.375682 0.00647,-0.57833 -0.1466699,0.02514 -0.3113953,0.04575 -0.4945884,0.06249 -0.1753269,0.01 -0.3074135,0.01277 -0.3981765,0.0073 -0.090488,-0.0055 -0.1643907,-0.03553 -0.2220034,-0.09034 -0.049651,-0.0617 -0.072482,-0.132915 -0.068174,-0.213779 0.00274,-0.05146 0.012684,-0.09514 0.029889,-0.13106 0.024818,-0.03553 0.056518,-0.05591 0.095054,-0.06109 0.2520505,-0.01525 0.4389348,-0.0215 0.5526988,-0.02108 0.1653608,-0.0072 0.3309102,-0.01347 0.4966447,-0.01883 0.044603,-0.950048 0.073253,-1.723821 0.08705,-2.321261 -0.1205335,-0.009 -0.2174743,-0.01202 -0.2902593,-0.0096 -0.1851501,-0.009 -0.3702424,-0.01689 -0.5552706,-0.02373 -0.072312,-0.0041 -0.1274892,-0.02552 -0.1656705,-0.06443 -0.038175,-0.0389 -0.056139,-0.08035 -0.053746,-0.124429 0.00957,-0.176156 0.1452404,-0.287749 0.4091826,-0.33109 0.098271,-0.0089 0.2215127,-0.01605 0.3688168,-0.02092 0.1558411,-0.01169 0.259084,-0.01525 0.3076356,-0.0117 0.073504,-0.06309 0.1493232,-0.11077 0.2272987,-0.143003 0.09802,-0.04005 0.1993453,-0.05531 0.3035651,-0.04577 0.03245,0.003 0.054524,0.03091 0.066176,0.08379 0.020395,0.04625 0.029567,0.08042 0.027604,0.102439 0.5370684,0.02778 1.1710918,0.03924 1.9143247,0.04442 0.5007082,0.0028 1.2365434,-0.0364 2.2828846,-0.09058 0.1526147,-0.0047 0.3052689,-0.0089 0.4579573,-0.01262 0.079898,0.01367 0.1122416,0.06404 0.097232,0.150863 -0.01502,0.08688 -0.095803,0.151023 -0.2418554,0.193258 -3.2e-6,2e-5 -6.4e-6,4e-5 -9.5e-6,5.9e-5 z m 5.6154923,6.603316 c -0.413656,0.32271 -0.92328,0.60771 -1.526845,0.8631 -0.601384,0.2481 -1.195872,0.30138 -1.795053,0.16232 -0.634231,-0.1472 -1.111504,-0.44061 -1.442136,-0.89099 -0.3282281,-0.4563 -0.4288563,-1.04861 -0.288001,-1.776439 0.09619,-0.497028 0.292913,-1.043644 0.597158,-1.634402 0.304568,-0.59139 0.627764,-1.091572 0.969827,-1.501039 0.351149,-0.41494 0.729066,-0.740126 1.132553,-0.974993 0.411127,-0.233059 0.79166,-0.308643 1.134777,-0.228179 0.335463,0.07867 0.565313,0.251899 0.688435,0.516834 0.130944,0.267007 0.153752,0.564703 0.07135,0.892997 -0.03046,0.121337 -0.08855,0.239527 -0.173911,0.354773 -0.07597,0.109992 -0.15489,0.200349 -0.236761,0.271079 -0.08188,0.07074 -0.137821,0.102467 -0.168109,0.09505 -0.06056,-0.01483 -0.08302,-0.05434 -0.0673,-0.118659 0.0052,-0.02144 0.02798,-0.06516 0.06827,-0.131008 0.04965,-0.07119 0.08068,-0.131727 0.09297,-0.181744 0.04387,-0.178602 0.06226,-0.352053 0.05471,-0.520448 -0.0051,-0.145074 -0.05495,-0.274503 -0.149925,-0.388043 -0.09323,-0.120669 -0.209791,-0.197479 -0.349126,-0.230131 -0.557296,-0.1306 -1.199116,0.25042 -1.892376,1.147312 -0.276505,0.362104 -0.529589,0.78197 -0.760322,1.259718 -0.230623,0.477526 -0.391139,0.951241 -0.48577,1.419108 -0.06552,0.323938 -0.05946,0.632551 0.01555,0.925451 0.08224,0.29447 0.227789,0.54637 0.43623,0.75681 0.215673,0.21208 0.485538,0.35479 0.8123,0.43025 0.518572,0.11975 1.01645,0.10917 1.50046,-0.0343 0.490956,-0.14159 0.997269,-0.3515 1.521267,-0.62968 0.01843,-0.0104 0.08964,-0.0748 0.215146,-0.19356 0.127307,-0.1257 0.213106,-0.18243 0.256687,-0.17049 0.04359,0.0119 0.06972,0.0306 0.07839,0.0559 0.0087,0.0253 0.0052,0.0664 -0.01037,0.12321 -0.01953,0.0712 -0.119832,0.18076 -0.300061,0.33018 -10e-7,-10e-6 -10e-7,-2e-5 -2e-6,-3e-5 z m 8.61872,-2.455697 c -0.02224,-0.0076 -0.09366,-0.05162 -0.214953,-0.132008 -0.111466,-0.0848 -0.22289,-0.145987 -0.33409,-0.183563 -0.355534,-0.120141 -0.766962,-0.238218 -1.23277,-0.352134 -0.466009,-0.113966 -0.859696,-0.186014 -1.17902,-0.217814 -0.08543,0.345041 -0.237555,0.885242 -0.456829,1.621755 -0.209625,0.731801 -0.442966,1.498161 -0.699709,2.300221 -0.108114,0.33775 -0.235746,0.71154 -0.382881,1.12208 -0.139915,0.41267 -0.236335,0.665 -0.289105,0.75656 -0.03896,0.0728 -0.108955,0.12015 -0.209851,0.14215 -0.0938,0.0243 -0.183206,0.0229 -0.268367,-0.004 -0.04967,-0.0158 -0.08559,-0.0504 -0.107816,-0.10384 -0.02222,-0.0535 -0.02451,-0.10839 -0.0068,-0.16477 0.04224,-0.12216 0.08449,-0.24432 0.12676,-0.36647 0.215118,-0.53551 0.449872,-1.20572 0.70231,-2.00821 0.181556,-0.57716 0.381706,-1.238805 0.599279,-1.982636 0.219906,-0.75128 0.349836,-1.217355 0.390133,-1.39815 -1.542649,-0.312258 -2.605783,-0.452645 -3.144461,-0.459492 -0.0987,0.003 -0.204695,-0.01124 -0.318179,-0.04257 -0.136178,-0.0376 -0.255877,-0.12 -0.359708,-0.247368 -0.103824,-0.12737 -0.141727,-0.244208 -0.112875,-0.350885 0.01923,-0.0711 0.05558,-0.114731 0.109108,-0.130831 0.05546,-0.02322 0.117593,-0.02554 0.186297,-0.0069 0.44623,0.09789 0.806917,0.176831 1.114689,0.241016 0.69445,0.136061 1.565473,0.296122 2.621268,0.49334 0.06846,-0.218442 0.120774,-0.372189 0.157063,-0.461458 0.04383,-0.08688 0.08469,-0.124419 0.122515,-0.112614 0.143748,0.04487 0.255561,0.138082 0.335102,0.279383 0.01591,0.02826 0.01684,0.09052 0.0028,0.186772 -0.01183,0.08919 -0.02226,0.147894 -0.03122,0.176026 0.168071,0.04545 0.448691,0.09601 0.844365,0.154376 0.844911,0.14245 1.422417,0.270809 1.716931,0.370374 0.357029,0.120698 0.580117,0.244312 0.669734,0.368781 0.06228,0.08388 0.06804,0.199241 0.01748,0.346033 -0.01925,0.05589 -0.06557,0.106381 -0.138914,0.151544 -0.07092,0.03813 -0.146963,0.04326 -0.228234,0.01544 0,-3e-6 0,-7e-6 0,-1e-5 z m 0.88054,7.583107 c -0.463427,-0.16579 -0.816433,-0.33419 -1.059875,-0.50651 -0.245842,-0.16532 -0.345605,-0.3139 -0.298897,-0.44637 0.02456,-0.0697 0.115023,-0.16722 0.271601,-0.29222 0.16621,-0.12946 0.278107,-0.18396 0.335304,-0.16371 0.0858,0.0304 0.12251,0.063 0.110134,0.0978 -0.0074,0.0209 -0.03039,0.0402 -0.06886,0.0579 -0.03133,0.0203 -0.05193,0.0443 -0.06182,0.0722 -0.0074,0.0209 0.02431,0.0674 0.09516,0.13957 0.078,0.0747 0.203572,0.16237 0.376792,0.26332 0.173215,0.10094 0.391892,0.19865 0.656234,0.29343 0.421532,0.15115 0.818582,0.20409 1.191627,0.15844 0.380185,-0.0431 0.700782,-0.15427 0.961581,-0.3342 0.260794,-0.17992 0.433166,-0.3839 0.516905,-0.61245 0.109103,-0.29777 0.0523,-0.60905 -0.17101,-0.93396 -0.215838,-0.32185 -0.619948,-0.70164 -1.212586,-1.1354 -0.568411,-0.43282 -1.008807,-0.77869 -1.316317,-1.0366 -0.298242,-0.26268 -0.522499,-0.52963 -0.672352,-0.80142 -0.147387,-0.27873 -0.171942,-0.56117 -0.07225,-0.84739 0.133695,-0.383846 0.491866,-0.682169 1.076866,-0.891369 0.587396,-0.216148 1.256126,-0.319046 2.003539,-0.30783 0.749601,0.0043 1.407499,0.112165 1.972152,0.320826 0.289607,0.107021 0.424523,0.220138 0.405593,0.338903 -0.01893,0.118822 -0.05379,0.247464 -0.104553,0.38594 -0.03807,0.10386 -0.09679,0.14109 -0.176214,0.1117 -0.0361,-0.0134 -0.07562,-0.0398 -0.118587,-0.0793 -0.03321,-0.04372 -0.06537,-0.07918 -0.09645,-0.106379 -0.03831,-0.02987 -0.08387,-0.06241 -0.13669,-0.09762 -0.05281,-0.03521 -0.133527,-0.07284 -0.242182,-0.112845 -0.376527,-0.138616 -0.864856,-0.211572 -1.464229,-0.216847 -0.599627,-0.0053 -1.146911,0.06143 -1.640557,0.199748 -0.486349,0.140925 -0.774338,0.341582 -0.865043,0.599482 -0.07358,0.2092 -0.04975,0.42126 0.07068,0.63625 0.127705,0.21759 0.320444,0.43488 0.57787,0.6523 0.259766,0.21035 0.632559,0.49323 1.115935,0.8488 0.712955,0.50921 1.205008,0.97314 1.476793,1.38626 0.279363,0.41635 0.344918,0.82511 0.197557,1.2263 -0.127079,0.34598 -0.374851,0.64377 -0.743048,0.89431 -0.358492,0.24622 -0.794068,0.39398 -1.306256,0.44422 -0.507593,0.0598 -1.035522,-0.009 -1.584559,-0.20529 6e-6,-10e-6 1.2e-5,-3e-5 1.8e-5,-4e-5 z"
         id="path71"
         transform="rotate(62.12374,97.986294,371.40291)"
         aria-label="PROJECTS" />
    </g>
    <g
       id="g5"
       transform="translate(150.78092,302.04204)">
      <rect
         style="fill:#1e1e1e;fill-opacity:1;stroke:none;stroke-width:10;stroke-linecap:square;stroke-miterlimit:1.6;filter:url(#filter4)"
         id="rect3"
         width="411.19318"
         height="57.723232"
         x="48.403412"
         y="0" />
      <rect
         style="fill:#282828;fill-opacity:1;stroke:none;stroke-width:11.4459;stroke-linecap:square;stroke-miterlimit:1.6"
         id="rect1"
         width="508"
         height="58.062782"
         x="-4.2632564e-14"
         y="0" />
    </g>
  </g>
</svg>
